<svg width="1810" height="3472" viewBox="0 0 1810 3472" fill="none" xmlns="http://www.w3.org/2000/svg">
<path d="M0 0H1810V3472H0V0Z" fill="url(#paint0_linear_15_122)"/>
<path d="M1727 1535C1727 1537.76 1724.76 1540 1722 1540C1719.24 1540 1717 1537.76 1717 1535C1717 1532.24 1719.24 1530 1722 1530C1724.76 1530 1727 1532.24 1727 1535Z" fill="#D9D9D9" fill-opacity="0.48"/>
<path d="M1768 1841C1768 1843.76 1765.76 1846 1763 1846C1760.24 1846 1758 1843.76 1758 1841C1758 1838.24 1760.24 1836 1763 1836C1765.76 1836 1768 1838.24 1768 1841Z" fill="#D9D9D9" fill-opacity="0.48"/>
<path d="M53 56C53 58.7614 50.7614 61 48 61C45.2386 61 43 58.7614 43 56C43 53.2386 45.2386 51 48 51C50.7614 51 53 53.2386 53 56Z" fill="#D9D9D9" fill-opacity="0.48"/>
<path d="M313 39C313 41.7614 310.761 44 308 44C305.239 44 303 41.7614 303 39C303 36.2386 305.239 34 308 34C310.761 34 313 36.2386 313 39Z" fill="#D9D9D9" fill-opacity="0.48"/>
<path d="M817 228C817 230.761 814.761 233 812 233C809.239 233 807 230.761 807 228C807 225.239 809.239 223 812 223C814.761 223 817 225.239 817 228Z" fill="#D9D9D9" fill-opacity="0.48"/>
<path d="M954 12C954 14.7614 951.761 17 949 17C946.239 17 944 14.7614 944 12C944 9.23858 946.239 7 949 7C951.761 7 954 9.23858 954 12Z" fill="#D9D9D9" fill-opacity="0.48"/>
<path d="M621 159C621 161.761 618.761 164 616 164C613.239 164 611 161.761 611 159C611 156.239 613.239 154 616 154C618.761 154 621 156.239 621 159Z" fill="#D9D9D9" fill-opacity="0.48"/>
<path d="M468 312C468 314.761 465.761 317 463 317C460.239 317 458 314.761 458 312C458 309.239 460.239 307 463 307C465.761 307 468 309.239 468 312Z" fill="#D9D9D9" fill-opacity="0.48"/>
<path d="M594 20C594 22.7614 591.761 25 589 25C586.239 25 584 22.7614 584 20C584 17.2386 586.239 15 589 15C591.761 15 594 17.2386 594 20Z" fill="#D9D9D9" fill-opacity="0.48"/>
<path d="M1134 1237C1134 1239.76 1131.76 1242 1129 1242C1126.24 1242 1124 1239.76 1124 1237C1124 1234.24 1126.24 1232 1129 1232C1131.76 1232 1134 1234.24 1134 1237Z" fill="#D9D9D9" fill-opacity="0.48"/>
<path d="M1171 1440C1171 1442.76 1168.76 1445 1166 1445C1163.24 1445 1161 1442.76 1161 1440C1161 1437.24 1163.24 1435 1166 1435C1168.76 1435 1171 1437.24 1171 1440Z" fill="#D9D9D9" fill-opacity="0.48"/>
<path d="M1279 994C1279 996.761 1276.76 999 1274 999C1271.24 999 1269 996.761 1269 994C1269 991.239 1271.24 989 1274 989C1276.76 989 1279 991.239 1279 994Z" fill="#D9D9D9" fill-opacity="0.48"/>
<path d="M864 1158C864 1160.76 861.761 1163 859 1163C856.239 1163 854 1160.76 854 1158C854 1155.24 856.239 1153 859 1153C861.761 1153 864 1155.24 864 1158Z" fill="#D9D9D9" fill-opacity="0.48"/>
<path d="M686 1428C686 1430.76 683.761 1433 681 1433C678.239 1433 676 1430.76 676 1428C676 1425.24 678.239 1423 681 1423C683.761 1423 686 1425.24 686 1428Z" fill="#D9D9D9" fill-opacity="0.48"/>
<path d="M823 1817C823 1819.76 820.761 1822 818 1822C815.239 1822 813 1819.76 813 1817C813 1814.24 815.239 1812 818 1812C820.761 1812 823 1814.24 823 1817Z" fill="#D9D9D9" fill-opacity="0.48"/>
<path d="M371 1640C371 1642.76 368.761 1645 366 1645C363.239 1645 361 1642.76 361 1640C361 1637.24 363.239 1635 366 1635C368.761 1635 371 1637.24 371 1640Z" fill="#D9D9D9" fill-opacity="0.48"/>
<path d="M66 1822C66 1824.76 63.7614 1827 61 1827C58.2386 1827 56 1824.76 56 1822C56 1819.24 58.2386 1817 61 1817C63.7614 1817 66 1819.24 66 1822Z" fill="#D9D9D9" fill-opacity="0.48"/>
<path d="M17 1291C17 1293.76 14.7614 1296 12 1296C9.23858 1296 7 1293.76 7 1291C7 1288.24 9.23858 1286 12 1286C14.7614 1286 17 1288.24 17 1291Z" fill="#D9D9D9" fill-opacity="0.48"/>
<path d="M421 479C421 481.761 418.761 484 416 484C413.239 484 411 481.761 411 479C411 476.239 413.239 474 416 474C418.761 474 421 476.239 421 479Z" fill="#D9D9D9" fill-opacity="0.48"/>
<path d="M681 405C681 407.761 678.761 410 676 410C673.239 410 671 407.761 671 405C671 402.239 673.239 400 676 400C678.761 400 681 402.239 681 405Z" fill="#D9D9D9" fill-opacity="0.48"/>
<path d="M290 806C290 808.761 287.761 811 285 811C282.239 811 280 808.761 280 806C280 803.239 282.239 801 285 801C287.761 801 290 803.239 290 806Z" fill="#D9D9D9" fill-opacity="0.48"/>
<path d="M643 633C643 635.761 640.761 638 638 638C635.239 638 633 635.761 633 633C633 630.239 635.239 628 638 628C640.761 628 643 630.239 643 633Z" fill="#D9D9D9" fill-opacity="0.48"/>
<path d="M615 899C615 901.761 612.761 904 610 904C607.239 904 605 901.761 605 899C605 896.239 607.239 894 610 894C612.761 894 615 896.239 615 899Z" fill="#D9D9D9" fill-opacity="0.48"/>
<path d="M504 1070C504 1072.76 501.761 1075 499 1075C496.239 1075 494 1072.76 494 1070C494 1067.24 496.239 1065 499 1065C501.761 1065 504 1067.24 504 1070Z" fill="#D9D9D9" fill-opacity="0.48"/>
<path d="M110 588C110 590.761 107.761 593 105 593C102.239 593 100 590.761 100 588C100 585.239 102.239 583 105 583C107.761 583 110 585.239 110 588Z" fill="#D9D9D9" fill-opacity="0.48"/>
<path d="M96 1026C96 1028.76 93.7614 1031 91 1031C88.2386 1031 86 1028.76 86 1026C86 1023.24 88.2386 1021 91 1021C93.7614 1021 96 1023.24 96 1026Z" fill="#D9D9D9" fill-opacity="0.48"/>
<path d="M97 1027C97 1029.76 94.7614 1032 92 1032C89.2386 1032 87 1029.76 87 1027C87 1024.24 89.2386 1022 92 1022C94.7614 1022 97 1024.24 97 1027Z" fill="#D9D9D9" fill-opacity="0.48"/>
<path d="M231 1333C231 1335.76 228.761 1338 226 1338C223.239 1338 221 1335.76 221 1333C221 1330.24 223.239 1328 226 1328C228.761 1328 231 1330.24 231 1333Z" fill="#D9D9D9" fill-opacity="0.48"/>
<path d="M1221 299C1221 301.761 1218.76 304 1216 304C1213.24 304 1211 301.761 1211 299C1211 296.239 1213.24 294 1216 294C1218.76 294 1221 296.239 1221 299Z" fill="#D9D9D9" fill-opacity="0.48"/>
<path d="M1113 553C1113 555.761 1110.76 558 1108 558C1105.24 558 1103 555.761 1103 553C1103 550.239 1105.24 548 1108 548C1110.76 548 1113 550.239 1113 553Z" fill="#D9D9D9" fill-opacity="0.48"/>
<path d="M1012 803C1012 805.761 1009.76 808 1007 808C1004.24 808 1002 805.761 1002 803C1002 800.239 1004.24 798 1007 798C1009.76 798 1012 800.239 1012 803Z" fill="#D9D9D9" fill-opacity="0.48"/>
<path d="M921 382C921 384.761 918.761 387 916 387C913.239 387 911 384.761 911 382C911 379.239 913.239 377 916 377C918.761 377 921 379.239 921 382Z" fill="#D9D9D9" fill-opacity="0.48"/>
<path d="M1321 79C1321 81.7614 1318.76 84 1316 84C1313.24 84 1311 81.7614 1311 79C1311 76.2386 1313.24 74 1316 74C1318.76 74 1321 76.2386 1321 79Z" fill="#D9D9D9" fill-opacity="0.48"/>
<path d="M1086 134C1086 136.761 1083.76 139 1081 139C1078.24 139 1076 136.761 1076 134C1076 131.239 1078.24 129 1081 129C1083.76 129 1086 131.239 1086 134Z" fill="#D9D9D9" fill-opacity="0.48"/>
<path d="M1590 19C1590 21.7614 1587.76 24 1585 24C1582.24 24 1580 21.7614 1580 19C1580 16.2386 1582.24 14 1585 14C1587.76 14 1590 16.2386 1590 19Z" fill="#D9D9D9" fill-opacity="0.48"/>
<path d="M1531 363C1531 365.761 1528.76 368 1526 368C1523.24 368 1521 365.761 1521 363C1521 360.239 1523.24 358 1526 358C1528.76 358 1531 360.239 1531 363Z" fill="#D9D9D9" fill-opacity="0.48"/>
<path d="M1647 641C1647 643.761 1644.76 646 1642 646C1639.24 646 1637 643.761 1637 641C1637 638.239 1639.24 636 1642 636C1644.76 636 1647 638.239 1647 641Z" fill="#D9D9D9" fill-opacity="0.48"/>
<path d="M1808 475C1808 477.761 1805.76 480 1803 480C1800.24 480 1798 477.761 1798 475C1798 472.239 1800.24 470 1803 470C1805.76 470 1808 472.239 1808 475Z" fill="#D9D9D9" fill-opacity="0.48"/>
<path d="M1436 615C1436 617.761 1433.76 620 1431 620C1428.24 620 1426 617.761 1426 615C1426 612.239 1428.24 610 1431 610C1433.76 610 1436 612.239 1436 615Z" fill="#D9D9D9" fill-opacity="0.48"/>
<path d="M1793 1075C1793 1077.76 1790.76 1080 1788 1080C1785.24 1080 1783 1077.76 1783 1075C1783 1072.24 1785.24 1070 1788 1070C1790.76 1070 1793 1072.24 1793 1075Z" fill="#D9D9D9" fill-opacity="0.48"/>
<path d="M1474 884C1474 886.761 1471.76 889 1469 889C1466.24 889 1464 886.761 1464 884C1464 881.239 1466.24 879 1469 879C1471.76 879 1474 881.239 1474 884Z" fill="#D9D9D9" fill-opacity="0.48"/>
<path d="M1564 1246C1564 1248.76 1561.76 1251 1559 1251C1556.24 1251 1554 1248.76 1554 1246C1554 1243.24 1556.24 1241 1559 1241C1561.76 1241 1564 1243.24 1564 1246Z" fill="#D9D9D9" fill-opacity="0.48"/>
<path d="M1702 204C1702 206.761 1699.76 209 1697 209C1694.24 209 1692 206.761 1692 204C1692 201.239 1694.24 199 1697 199C1699.76 199 1702 201.239 1702 204Z" fill="#D9D9D9" fill-opacity="0.48"/>
<path d="M1786 112C1786 114.761 1783.76 117 1781 117C1778.24 117 1776 114.761 1776 112C1776 109.239 1778.24 107 1781 107C1783.76 107 1786 109.239 1786 112Z" fill="#D9D9D9" fill-opacity="0.48"/>
<path d="M1503 187C1503 189.761 1500.76 192 1498 192C1495.24 192 1493 189.761 1493 187C1493 184.239 1495.24 182 1498 182C1500.76 182 1503 184.239 1503 187Z" fill="#D9D9D9" fill-opacity="0.48"/>
<path d="M221 279C221 281.761 218.761 284 216 284C213.239 284 211 281.761 211 279C211 276.239 213.239 274 216 274C218.761 274 221 276.239 221 279Z" fill="#D9D9D9" fill-opacity="0.48"/>
<path d="M179 156C179 158.761 176.761 161 174 161C171.239 161 169 158.761 169 156C169 153.239 171.239 151 174 151C176.761 151 179 153.239 179 156Z" fill="#D9D9D9" fill-opacity="0.48"/>
<path d="M22 336C22 338.761 19.7614 341 17 341C14.2386 341 12 338.761 12 336C12 333.239 14.2386 331 17 331C19.7614 331 22 333.239 22 336Z" fill="#D9D9D9" fill-opacity="0.48"/>
<path d="M1810 3467C1810 3469.76 1807.76 3472 1805 3472C1802.24 3472 1800 3469.76 1800 3467C1800 3464.24 1802.24 3462 1805 3462C1807.76 3462 1810 3464.24 1810 3467Z" fill="#D9D9D9" fill-opacity="0.48"/>
<path d="M1387.1 1462C1538.43 1462 1661.1 1584.67 1661.1 1736C1661.1 1887.33 1538.43 2010 1387.1 2010C1272.09 2010 1173.64 1939.14 1133 1838.7C1174.44 1885.22 1234.8 1914.51 1301.99 1914.51C1426.95 1914.51 1528.25 1813.22 1528.25 1688.26C1528.25 1577.12 1448.12 1484.7 1342.49 1465.61C1357.01 1463.24 1371.91 1462 1387.1 1462Z" fill="url(#paint1_linear_15_122)"/>
<defs>
<linearGradient id="paint0_linear_15_122" x1="905" y1="0" x2="905" y2="3472" gradientUnits="userSpaceOnUse">
<stop stop-color="#2A1560"/>
<stop offset="0.1875" stop-color="#1F0F46"/>
<stop offset="0.721154" stop-color="#120929"/>
</linearGradient>
<linearGradient id="paint1_linear_15_122" x1="1397.05" y1="1462" x2="1397.05" y2="2010" gradientUnits="userSpaceOnUse">
<stop stop-color="white"/>
<stop offset="1" stop-color="#999999" stop-opacity="0"/>
</linearGradient>
</defs>
</svg>
