<svg width="1811" height="3472" viewBox="0 0 1811 3472" fill="none" xmlns="http://www.w3.org/2000/svg">
<path d="M0 0H1810V3472H0V0Z" fill="url(#paint0_linear_24_228)"/>
<path d="M1607 1781.5C1607 1940.28 1478.28 2069 1319.5 2069C1160.72 2069 1032 1940.28 1032 1781.5C1032 1622.72 1160.72 1494 1319.5 1494C1478.28 1494 1607 1622.72 1607 1781.5Z" fill="url(#paint1_linear_24_228)"/>
<path d="M781.395 1672C813.971 1672 843.289 1685.95 863.704 1708.2C886.013 1688.44 915.355 1676.45 947.498 1676.45C1001.03 1676.45 1046.79 1709.72 1065.24 1756.7C1084.79 1744.32 1107.97 1737.15 1132.82 1737.15C1202.66 1737.15 1259.27 1793.76 1259.27 1863.6C1259.27 1933.43 1202.66 1990.04 1132.82 1990.04C1132.08 1990.04 1131.34 1990.04 1130.6 1990.02C1109.15 2029.33 1067.45 2056 1019.52 2056C979.254 2056 943.383 2037.18 920.226 2007.85C897.059 2036.94 861.334 2055.6 821.251 2055.6C785.844 2055.6 753.836 2041.04 730.881 2017.59C708.743 2034.82 680.918 2045.08 650.697 2045.08C578.515 2045.08 520 1986.56 520 1914.38C520 1842.19 578.515 1783.68 650.697 1783.68C657.159 1783.68 663.512 1784.15 669.723 1785.06C669.718 1784.6 669.715 1784.14 669.715 1783.68C669.715 1722 719.716 1672 781.395 1672Z" fill="url(#paint2_linear_24_228)"/>
<path d="M261.396 1698C293.972 1698 323.289 1711.95 343.704 1734.2C366.014 1714.44 395.355 1702.45 427.498 1702.45C481.03 1702.45 526.793 1735.72 545.242 1782.7C564.791 1770.32 587.969 1763.15 612.822 1763.15C682.658 1763.15 739.271 1819.76 739.271 1889.6C739.27 1959.43 682.658 2016.04 612.822 2016.04C612.08 2016.04 611.34 2016.04 610.601 2016.02C589.155 2055.33 547.455 2082 499.523 2082C459.255 2082 423.384 2063.18 400.227 2033.85C377.06 2062.94 341.335 2081.6 301.252 2081.6C265.845 2081.6 233.836 2067.04 210.882 2043.59C188.743 2060.82 160.919 2071.08 130.697 2071.08C58.5151 2071.08 0 2012.56 0 1940.38C0.000158827 1868.19 58.5152 1809.68 130.697 1809.68C137.16 1809.68 143.513 1810.15 149.724 1811.06C149.718 1810.6 149.716 1810.14 149.716 1809.68C149.716 1748 199.717 1698 261.396 1698Z" fill="url(#paint3_linear_24_228)"/>
<path d="M261.396 1571C293.972 1571 323.289 1584.95 343.704 1607.2C366.014 1587.44 395.355 1575.45 427.498 1575.45C481.03 1575.45 526.793 1608.72 545.242 1655.7C564.791 1643.32 587.969 1636.15 612.822 1636.15C682.658 1636.15 739.271 1692.76 739.271 1762.6C739.27 1832.43 682.658 1889.04 612.822 1889.04C612.08 1889.04 611.34 1889.04 610.601 1889.02C589.155 1928.33 547.455 1955 499.523 1955C459.255 1955 423.384 1936.18 400.227 1906.85C377.06 1935.94 341.335 1954.6 301.252 1954.6C265.845 1954.6 233.836 1940.04 210.882 1916.59C188.743 1933.82 160.919 1944.08 130.697 1944.08C58.5151 1944.08 0 1885.56 0 1813.38C0.000158827 1741.19 58.5152 1682.68 130.697 1682.68C137.16 1682.68 143.513 1683.15 149.724 1684.06C149.718 1683.6 149.716 1683.14 149.716 1682.68C149.716 1621 199.717 1571 261.396 1571Z" fill="url(#paint4_linear_24_228)"/>
<path d="M1189.39 1828C1221.97 1828 1251.29 1841.95 1271.7 1864.2C1294.01 1844.44 1323.35 1832.45 1355.5 1832.45C1409.03 1832.45 1454.79 1865.72 1473.24 1912.7C1492.79 1900.32 1515.97 1893.15 1540.82 1893.15C1610.66 1893.15 1667.27 1949.76 1667.27 2019.6C1667.27 2089.43 1610.66 2146.04 1540.82 2146.04C1540.08 2146.04 1539.34 2146.04 1538.6 2146.02C1517.15 2185.33 1475.45 2212 1427.52 2212C1387.25 2212 1351.38 2193.18 1328.23 2163.85C1305.06 2192.94 1269.33 2211.6 1229.25 2211.6C1193.84 2211.6 1161.84 2197.04 1138.88 2173.59C1116.74 2190.82 1088.92 2201.08 1058.7 2201.08C986.515 2201.08 927.999 2142.56 927.999 2070.38C928 1998.19 986.515 1939.68 1058.7 1939.68C1065.16 1939.68 1071.51 1940.15 1077.72 1941.06C1077.72 1940.6 1077.72 1940.14 1077.72 1939.68C1077.72 1878 1127.72 1828 1189.39 1828Z" fill="url(#paint5_linear_24_228)"/>
<path d="M1332.4 1763C1364.97 1763 1394.29 1776.95 1414.71 1799.2C1437.02 1779.44 1466.36 1767.45 1498.5 1767.45C1552.03 1767.45 1597.79 1800.72 1616.24 1847.7C1635.79 1835.32 1658.97 1828.15 1683.82 1828.15C1753.66 1828.15 1810.27 1884.76 1810.27 1954.6C1810.27 2024.43 1753.66 2081.04 1683.82 2081.04C1683.08 2081.04 1682.34 2081.04 1681.6 2081.02C1660.16 2120.33 1618.46 2147 1570.52 2147C1530.26 2147 1494.38 2128.18 1471.23 2098.85C1448.06 2127.94 1412.34 2146.6 1372.25 2146.6C1336.85 2146.6 1304.84 2132.04 1281.88 2108.59C1259.74 2125.82 1231.92 2136.08 1201.7 2136.08C1129.52 2136.08 1071 2077.56 1071 2005.38C1071 1933.19 1129.52 1874.68 1201.7 1874.68C1208.16 1874.68 1214.51 1875.15 1220.72 1876.06C1220.72 1875.6 1220.72 1875.14 1220.72 1874.68C1220.72 1813 1270.72 1763 1332.4 1763Z" fill="url(#paint6_linear_24_228)"/>
<path d="M677.395 1790C709.971 1790 739.289 1803.95 759.704 1826.2C782.013 1806.44 811.355 1794.45 843.498 1794.45C897.03 1794.45 942.792 1827.72 961.242 1874.7C980.79 1862.32 1003.97 1855.15 1028.82 1855.15C1098.66 1855.15 1155.27 1911.76 1155.27 1981.6C1155.27 2051.43 1098.66 2108.04 1028.82 2108.04C1028.08 2108.04 1027.34 2108.04 1026.6 2108.02C1005.15 2147.33 963.454 2174 915.523 2174C875.254 2174 839.383 2155.18 816.226 2125.85C793.059 2154.94 757.334 2173.6 717.251 2173.6C681.844 2173.6 649.836 2159.04 626.881 2135.59C604.743 2152.82 576.918 2163.08 546.697 2163.08C474.515 2163.08 415.999 2104.56 415.999 2032.38C416 1960.19 474.515 1901.68 546.697 1901.68C553.159 1901.68 559.512 1902.15 565.723 1903.06C565.718 1902.6 565.715 1902.14 565.715 1901.68C565.715 1840 615.716 1790 677.395 1790Z" fill="url(#paint7_linear_24_228)"/>
<path d="M677.395 1828C709.971 1828 739.289 1841.95 759.704 1864.2C782.013 1844.44 811.355 1832.45 843.498 1832.45C897.03 1832.45 942.792 1865.72 961.242 1912.7C980.79 1900.32 1003.97 1893.15 1028.82 1893.15C1098.66 1893.15 1155.27 1949.76 1155.27 2019.6C1155.27 2089.43 1098.66 2146.04 1028.82 2146.04C1028.08 2146.04 1027.34 2146.04 1026.6 2146.02C1005.15 2185.33 963.454 2212 915.523 2212C875.254 2212 839.383 2193.18 816.226 2163.85C793.059 2192.94 757.334 2211.6 717.251 2211.6C681.844 2211.6 649.836 2197.04 626.881 2173.59C604.743 2190.82 576.918 2201.08 546.697 2201.08C474.515 2201.08 415.999 2142.56 415.999 2070.38C416 1998.19 474.515 1939.68 546.697 1939.68C553.159 1939.68 559.512 1940.15 565.723 1941.06C565.718 1940.6 565.715 1940.14 565.715 1939.68C565.715 1878 615.716 1828 677.395 1828Z" fill="url(#paint8_linear_24_228)"/>
<path d="M1317.4 1598C1349.97 1598 1379.29 1611.95 1399.71 1634.2C1422.02 1614.44 1451.36 1602.45 1483.5 1602.45C1537.03 1602.45 1582.79 1635.72 1601.24 1682.7C1620.79 1670.32 1643.97 1663.15 1668.82 1663.15C1738.66 1663.15 1795.27 1719.76 1795.27 1789.6C1795.27 1859.43 1738.66 1916.04 1668.82 1916.04C1668.08 1916.04 1667.34 1916.04 1666.6 1916.02C1645.16 1955.33 1603.46 1982 1555.52 1982C1515.26 1982 1479.38 1963.18 1456.23 1933.85C1433.06 1962.94 1397.34 1981.6 1357.25 1981.6C1321.85 1981.6 1289.84 1967.04 1266.88 1943.59C1244.74 1960.82 1216.92 1971.08 1186.7 1971.08C1114.52 1971.08 1056 1912.56 1056 1840.38C1056 1768.19 1114.52 1709.68 1186.7 1709.68C1193.16 1709.68 1199.51 1710.15 1205.72 1711.06C1205.72 1710.6 1205.72 1710.14 1205.72 1709.68C1205.72 1648 1255.72 1598 1317.4 1598Z" fill="url(#paint9_linear_24_228)"/>
<path d="M1101.39 1094C1133.97 1094 1163.29 1107.95 1183.7 1130.2C1206.01 1110.44 1235.35 1098.45 1267.5 1098.45C1321.03 1098.45 1366.79 1131.72 1385.24 1178.7C1404.79 1166.32 1427.97 1159.15 1452.82 1159.15C1522.66 1159.15 1579.27 1215.76 1579.27 1285.6C1579.27 1355.43 1522.66 1412.04 1452.82 1412.04C1452.08 1412.04 1451.34 1412.04 1450.6 1412.02C1429.15 1451.33 1387.45 1478 1339.52 1478C1299.25 1478 1263.38 1459.18 1240.23 1429.85C1217.06 1458.94 1181.33 1477.6 1141.25 1477.6C1105.84 1477.6 1073.84 1463.04 1050.88 1439.59C1028.74 1456.82 1000.92 1467.08 970.697 1467.08C898.515 1467.08 839.999 1408.56 839.999 1336.38C840 1264.19 898.515 1205.68 970.697 1205.68C977.159 1205.68 983.512 1206.15 989.723 1207.06C989.718 1206.6 989.715 1206.14 989.715 1205.68C989.715 1144 1039.72 1094 1101.39 1094Z" fill="url(#paint10_linear_24_228)"/>
<path d="M1332.4 984C1364.97 984 1394.29 997.949 1414.71 1020.2C1437.02 1000.44 1466.36 988.451 1498.5 988.451C1552.03 988.451 1597.79 1021.72 1616.24 1068.7C1635.79 1056.32 1658.97 1049.15 1683.82 1049.15C1753.66 1049.15 1810.27 1105.76 1810.27 1175.6C1810.27 1245.43 1753.66 1302.04 1683.82 1302.04C1683.08 1302.04 1682.34 1302.04 1681.6 1302.02C1660.16 1341.33 1618.46 1368 1570.52 1368C1530.26 1368 1494.38 1349.18 1471.23 1319.85C1448.06 1348.94 1412.34 1367.6 1372.25 1367.6C1336.85 1367.6 1304.84 1353.04 1281.88 1329.59C1259.74 1346.82 1231.92 1357.08 1201.7 1357.08C1129.52 1357.08 1071 1298.56 1071 1226.38C1071 1154.19 1129.52 1095.68 1201.7 1095.68C1208.16 1095.68 1214.51 1096.15 1220.72 1097.06C1220.72 1096.6 1220.72 1096.14 1220.72 1095.68C1220.72 1034 1270.72 984 1332.4 984Z" fill="url(#paint11_linear_24_228)"/>
<path d="M281.396 1982C313.972 1982 343.289 1995.95 363.704 2018.2C386.014 1998.44 415.355 1986.45 447.498 1986.45C501.03 1986.45 546.793 2019.72 565.242 2066.7C584.791 2054.32 607.969 2047.15 632.822 2047.15C702.658 2047.15 759.271 2103.76 759.271 2173.6C759.27 2243.43 702.658 2300.04 632.822 2300.04C632.08 2300.04 631.34 2300.04 630.601 2300.02C609.155 2339.33 567.455 2366 519.523 2366C479.255 2366 443.384 2347.18 420.227 2317.85C397.06 2346.94 361.335 2365.6 321.252 2365.6C285.845 2365.6 253.836 2351.04 230.882 2327.59C208.743 2344.82 180.919 2355.08 150.697 2355.08C78.5151 2355.08 20 2296.56 20 2224.38C20.0002 2152.19 78.5152 2093.68 150.697 2093.68C157.16 2093.68 163.513 2094.15 169.724 2095.06C169.718 2094.6 169.716 2094.14 169.716 2093.68C169.716 2032 219.717 1982 281.396 1982Z" fill="url(#paint12_linear_24_228)"/>
<path d="M781.395 2056C813.971 2056 843.289 2069.95 863.704 2092.2C886.013 2072.44 915.355 2060.45 947.498 2060.45C1001.03 2060.45 1046.79 2093.72 1065.24 2140.7C1084.79 2128.32 1107.97 2121.15 1132.82 2121.15C1202.66 2121.15 1259.27 2177.76 1259.27 2247.6C1259.27 2317.43 1202.66 2374.04 1132.82 2374.04C1132.08 2374.04 1131.34 2374.04 1130.6 2374.02C1109.15 2413.33 1067.45 2440 1019.52 2440C979.254 2440 943.383 2421.18 920.226 2391.85C897.059 2420.94 861.334 2439.6 821.251 2439.6C785.844 2439.6 753.836 2425.04 730.881 2401.59C708.743 2418.82 680.918 2429.08 650.697 2429.08C578.515 2429.08 520 2370.56 520 2298.38C520 2226.19 578.515 2167.68 650.697 2167.68C657.159 2167.68 663.512 2168.15 669.723 2169.06C669.718 2168.6 669.715 2168.14 669.715 2167.68C669.715 2106 719.716 2056 781.395 2056Z" fill="url(#paint13_linear_24_228)"/>
<path d="M1332.4 2020C1364.97 2020 1394.29 2033.95 1414.71 2056.2C1437.02 2036.44 1466.36 2024.45 1498.5 2024.45C1552.03 2024.45 1597.79 2057.72 1616.24 2104.7C1635.79 2092.32 1658.97 2085.15 1683.82 2085.15C1753.66 2085.15 1810.27 2141.76 1810.27 2211.6C1810.27 2281.43 1753.66 2338.04 1683.82 2338.04C1683.08 2338.04 1682.34 2338.04 1681.6 2338.02C1660.16 2377.33 1618.46 2404 1570.52 2404C1530.26 2404 1494.38 2385.18 1471.23 2355.85C1448.06 2384.94 1412.34 2403.6 1372.25 2403.6C1336.85 2403.6 1304.84 2389.04 1281.88 2365.59C1259.74 2382.82 1231.92 2393.08 1201.7 2393.08C1129.52 2393.08 1071 2334.56 1071 2262.38C1071 2190.19 1129.52 2131.68 1201.7 2131.68C1208.16 2131.68 1214.51 2132.15 1220.72 2133.06C1220.72 2132.6 1220.72 2132.14 1220.72 2131.68C1220.72 2070 1270.72 2020 1332.4 2020Z" fill="url(#paint14_linear_24_228)"/>
<defs>
<linearGradient id="paint0_linear_24_228" x1="905" y1="0" x2="905" y2="3472" gradientUnits="userSpaceOnUse">
<stop stop-color="#0D68A9"/>
<stop offset="0.701923" stop-color="white"/>
</linearGradient>
<linearGradient id="paint1_linear_24_228" x1="1319.5" y1="1494" x2="1319.5" y2="2069" gradientUnits="userSpaceOnUse">
<stop offset="0.0385965" stop-color="#FFB726"/>
<stop offset="0.778846" stop-color="white" stop-opacity="0"/>
</linearGradient>
<linearGradient id="paint2_linear_24_228" x1="889.635" y1="1672" x2="889.635" y2="2056" gradientUnits="userSpaceOnUse">
<stop stop-color="white"/>
<stop offset="1" stop-color="white" stop-opacity="0.1"/>
</linearGradient>
<linearGradient id="paint3_linear_24_228" x1="369.635" y1="1698" x2="369.635" y2="2082" gradientUnits="userSpaceOnUse">
<stop stop-color="white"/>
<stop offset="1" stop-color="white" stop-opacity="0.1"/>
</linearGradient>
<linearGradient id="paint4_linear_24_228" x1="369.635" y1="1571" x2="369.635" y2="1955" gradientUnits="userSpaceOnUse">
<stop stop-color="white"/>
<stop offset="1" stop-color="white" stop-opacity="0.1"/>
</linearGradient>
<linearGradient id="paint5_linear_24_228" x1="1297.63" y1="1828" x2="1297.63" y2="2212" gradientUnits="userSpaceOnUse">
<stop stop-color="white"/>
<stop offset="1" stop-color="white" stop-opacity="0.1"/>
</linearGradient>
<linearGradient id="paint6_linear_24_228" x1="1440.64" y1="1763" x2="1440.64" y2="2147" gradientUnits="userSpaceOnUse">
<stop stop-color="white"/>
<stop offset="1" stop-color="white" stop-opacity="0.1"/>
</linearGradient>
<linearGradient id="paint7_linear_24_228" x1="785.635" y1="1790" x2="785.635" y2="2174" gradientUnits="userSpaceOnUse">
<stop stop-color="white"/>
<stop offset="1" stop-color="white" stop-opacity="0.1"/>
</linearGradient>
<linearGradient id="paint8_linear_24_228" x1="785.635" y1="1828" x2="785.635" y2="2212" gradientUnits="userSpaceOnUse">
<stop stop-color="white"/>
<stop offset="1" stop-color="white" stop-opacity="0.1"/>
</linearGradient>
<linearGradient id="paint9_linear_24_228" x1="1425.64" y1="1598" x2="1425.64" y2="1982" gradientUnits="userSpaceOnUse">
<stop stop-color="white"/>
<stop offset="1" stop-color="white" stop-opacity="0.1"/>
</linearGradient>
<linearGradient id="paint10_linear_24_228" x1="1209.63" y1="1094" x2="1209.63" y2="1478" gradientUnits="userSpaceOnUse">
<stop stop-color="white"/>
<stop offset="1" stop-color="white" stop-opacity="0.1"/>
</linearGradient>
<linearGradient id="paint11_linear_24_228" x1="1440.64" y1="984" x2="1440.64" y2="1368" gradientUnits="userSpaceOnUse">
<stop stop-color="white"/>
<stop offset="1" stop-color="white" stop-opacity="0.1"/>
</linearGradient>
<linearGradient id="paint12_linear_24_228" x1="389.635" y1="1982" x2="389.635" y2="2366" gradientUnits="userSpaceOnUse">
<stop stop-color="white"/>
<stop offset="1" stop-color="white" stop-opacity="0.1"/>
</linearGradient>
<linearGradient id="paint13_linear_24_228" x1="889.635" y1="2056" x2="889.635" y2="2440" gradientUnits="userSpaceOnUse">
<stop stop-color="white"/>
<stop offset="1" stop-color="white" stop-opacity="0.1"/>
</linearGradient>
<linearGradient id="paint14_linear_24_228" x1="1440.64" y1="2020" x2="1440.64" y2="2404" gradientUnits="userSpaceOnUse">
<stop stop-color="white"/>
<stop offset="1" stop-color="white" stop-opacity="0.1"/>
</linearGradient>
</defs>
</svg>
