<svg width="1832" height="3472" viewBox="0 0 1832 3472" fill="none" xmlns="http://www.w3.org/2000/svg">
<path d="M0 0H1810V3472H0V0Z" fill="url(#paint0_linear_27_292)"/>
<path d="M1727 1535C1727 1537.76 1724.76 1540 1722 1540C1719.24 1540 1717 1537.76 1717 1535C1717 1532.24 1719.24 1530 1722 1530C1724.76 1530 1727 1532.24 1727 1535Z" fill="#D9D9D9" fill-opacity="0.48"/>
<path d="M1768 1841C1768 1843.76 1765.76 1846 1763 1846C1760.24 1846 1758 1843.76 1758 1841C1758 1838.24 1760.24 1836 1763 1836C1765.76 1836 1768 1838.24 1768 1841Z" fill="#D9D9D9" fill-opacity="0.48"/>
<path d="M53 56C53 58.7614 50.7614 61 48 61C45.2386 61 43 58.7614 43 56C43 53.2386 45.2386 51 48 51C50.7614 51 53 53.2386 53 56Z" fill="#D9D9D9" fill-opacity="0.48"/>
<path d="M313 39C313 41.7614 310.761 44 308 44C305.239 44 303 41.7614 303 39C303 36.2386 305.239 34 308 34C310.761 34 313 36.2386 313 39Z" fill="#D9D9D9" fill-opacity="0.48"/>
<path d="M817 228C817 230.761 814.761 233 812 233C809.239 233 807 230.761 807 228C807 225.239 809.239 223 812 223C814.761 223 817 225.239 817 228Z" fill="#D9D9D9" fill-opacity="0.48"/>
<path d="M954 12C954 14.7614 951.761 17 949 17C946.239 17 944 14.7614 944 12C944 9.23858 946.239 7 949 7C951.761 7 954 9.23858 954 12Z" fill="#D9D9D9" fill-opacity="0.48"/>
<path d="M621 159C621 161.761 618.761 164 616 164C613.239 164 611 161.761 611 159C611 156.239 613.239 154 616 154C618.761 154 621 156.239 621 159Z" fill="#D9D9D9" fill-opacity="0.48"/>
<path d="M468 312C468 314.761 465.761 317 463 317C460.239 317 458 314.761 458 312C458 309.239 460.239 307 463 307C465.761 307 468 309.239 468 312Z" fill="#D9D9D9" fill-opacity="0.48"/>
<path d="M594 20C594 22.7614 591.761 25 589 25C586.239 25 584 22.7614 584 20C584 17.2386 586.239 15 589 15C591.761 15 594 17.2386 594 20Z" fill="#D9D9D9" fill-opacity="0.48"/>
<path d="M1134 1237C1134 1239.76 1131.76 1242 1129 1242C1126.24 1242 1124 1239.76 1124 1237C1124 1234.24 1126.24 1232 1129 1232C1131.76 1232 1134 1234.24 1134 1237Z" fill="#D9D9D9" fill-opacity="0.48"/>
<path d="M1171 1440C1171 1442.76 1168.76 1445 1166 1445C1163.24 1445 1161 1442.76 1161 1440C1161 1437.24 1163.24 1435 1166 1435C1168.76 1435 1171 1437.24 1171 1440Z" fill="#D9D9D9" fill-opacity="0.48"/>
<path d="M1279 994C1279 996.761 1276.76 999 1274 999C1271.24 999 1269 996.761 1269 994C1269 991.239 1271.24 989 1274 989C1276.76 989 1279 991.239 1279 994Z" fill="#D9D9D9" fill-opacity="0.48"/>
<path d="M864 1158C864 1160.76 861.761 1163 859 1163C856.239 1163 854 1160.76 854 1158C854 1155.24 856.239 1153 859 1153C861.761 1153 864 1155.24 864 1158Z" fill="#D9D9D9" fill-opacity="0.48"/>
<path d="M686 1428C686 1430.76 683.761 1433 681 1433C678.239 1433 676 1430.76 676 1428C676 1425.24 678.239 1423 681 1423C683.761 1423 686 1425.24 686 1428Z" fill="#D9D9D9" fill-opacity="0.48"/>
<path d="M823 1817C823 1819.76 820.761 1822 818 1822C815.239 1822 813 1819.76 813 1817C813 1814.24 815.239 1812 818 1812C820.761 1812 823 1814.24 823 1817Z" fill="#D9D9D9" fill-opacity="0.48"/>
<path d="M371 1640C371 1642.76 368.761 1645 366 1645C363.239 1645 361 1642.76 361 1640C361 1637.24 363.239 1635 366 1635C368.761 1635 371 1637.24 371 1640Z" fill="#D9D9D9" fill-opacity="0.48"/>
<path d="M66 1822C66 1824.76 63.7614 1827 61 1827C58.2386 1827 56 1824.76 56 1822C56 1819.24 58.2386 1817 61 1817C63.7614 1817 66 1819.24 66 1822Z" fill="#D9D9D9" fill-opacity="0.48"/>
<path d="M17 1291C17 1293.76 14.7614 1296 12 1296C9.23858 1296 7 1293.76 7 1291C7 1288.24 9.23858 1286 12 1286C14.7614 1286 17 1288.24 17 1291Z" fill="#D9D9D9" fill-opacity="0.48"/>
<path d="M421 479C421 481.761 418.761 484 416 484C413.239 484 411 481.761 411 479C411 476.239 413.239 474 416 474C418.761 474 421 476.239 421 479Z" fill="#D9D9D9" fill-opacity="0.48"/>
<path d="M681 405C681 407.761 678.761 410 676 410C673.239 410 671 407.761 671 405C671 402.239 673.239 400 676 400C678.761 400 681 402.239 681 405Z" fill="#D9D9D9" fill-opacity="0.48"/>
<path d="M290 806C290 808.761 287.761 811 285 811C282.239 811 280 808.761 280 806C280 803.239 282.239 801 285 801C287.761 801 290 803.239 290 806Z" fill="#D9D9D9" fill-opacity="0.48"/>
<path d="M643 633C643 635.761 640.761 638 638 638C635.239 638 633 635.761 633 633C633 630.239 635.239 628 638 628C640.761 628 643 630.239 643 633Z" fill="#D9D9D9" fill-opacity="0.48"/>
<path d="M615 899C615 901.761 612.761 904 610 904C607.239 904 605 901.761 605 899C605 896.239 607.239 894 610 894C612.761 894 615 896.239 615 899Z" fill="#D9D9D9" fill-opacity="0.48"/>
<path d="M504 1070C504 1072.76 501.761 1075 499 1075C496.239 1075 494 1072.76 494 1070C494 1067.24 496.239 1065 499 1065C501.761 1065 504 1067.24 504 1070Z" fill="#D9D9D9" fill-opacity="0.48"/>
<path d="M110 588C110 590.761 107.761 593 105 593C102.239 593 100 590.761 100 588C100 585.239 102.239 583 105 583C107.761 583 110 585.239 110 588Z" fill="#D9D9D9" fill-opacity="0.48"/>
<path d="M96 1026C96 1028.76 93.7614 1031 91 1031C88.2386 1031 86 1028.76 86 1026C86 1023.24 88.2386 1021 91 1021C93.7614 1021 96 1023.24 96 1026Z" fill="#D9D9D9" fill-opacity="0.48"/>
<path d="M97 1027C97 1029.76 94.7614 1032 92 1032C89.2386 1032 87 1029.76 87 1027C87 1024.24 89.2386 1022 92 1022C94.7614 1022 97 1024.24 97 1027Z" fill="#D9D9D9" fill-opacity="0.48"/>
<path d="M231 1333C231 1335.76 228.761 1338 226 1338C223.239 1338 221 1335.76 221 1333C221 1330.24 223.239 1328 226 1328C228.761 1328 231 1330.24 231 1333Z" fill="#D9D9D9" fill-opacity="0.48"/>
<path d="M1221 299C1221 301.761 1218.76 304 1216 304C1213.24 304 1211 301.761 1211 299C1211 296.239 1213.24 294 1216 294C1218.76 294 1221 296.239 1221 299Z" fill="#D9D9D9" fill-opacity="0.48"/>
<path d="M1113 553C1113 555.761 1110.76 558 1108 558C1105.24 558 1103 555.761 1103 553C1103 550.239 1105.24 548 1108 548C1110.76 548 1113 550.239 1113 553Z" fill="#D9D9D9" fill-opacity="0.48"/>
<path d="M1012 803C1012 805.761 1009.76 808 1007 808C1004.24 808 1002 805.761 1002 803C1002 800.239 1004.24 798 1007 798C1009.76 798 1012 800.239 1012 803Z" fill="#D9D9D9" fill-opacity="0.48"/>
<path d="M921 382C921 384.761 918.761 387 916 387C913.239 387 911 384.761 911 382C911 379.239 913.239 377 916 377C918.761 377 921 379.239 921 382Z" fill="#D9D9D9" fill-opacity="0.48"/>
<path d="M1321 79C1321 81.7614 1318.76 84 1316 84C1313.24 84 1311 81.7614 1311 79C1311 76.2386 1313.24 74 1316 74C1318.76 74 1321 76.2386 1321 79Z" fill="#D9D9D9" fill-opacity="0.48"/>
<path d="M1086 134C1086 136.761 1083.76 139 1081 139C1078.24 139 1076 136.761 1076 134C1076 131.239 1078.24 129 1081 129C1083.76 129 1086 131.239 1086 134Z" fill="#D9D9D9" fill-opacity="0.48"/>
<path d="M1590 19C1590 21.7614 1587.76 24 1585 24C1582.24 24 1580 21.7614 1580 19C1580 16.2386 1582.24 14 1585 14C1587.76 14 1590 16.2386 1590 19Z" fill="#D9D9D9" fill-opacity="0.48"/>
<path d="M1531 363C1531 365.761 1528.76 368 1526 368C1523.24 368 1521 365.761 1521 363C1521 360.239 1523.24 358 1526 358C1528.76 358 1531 360.239 1531 363Z" fill="#D9D9D9" fill-opacity="0.48"/>
<path d="M1647 641C1647 643.761 1644.76 646 1642 646C1639.24 646 1637 643.761 1637 641C1637 638.239 1639.24 636 1642 636C1644.76 636 1647 638.239 1647 641Z" fill="#D9D9D9" fill-opacity="0.48"/>
<path d="M1808 475C1808 477.761 1805.76 480 1803 480C1800.24 480 1798 477.761 1798 475C1798 472.239 1800.24 470 1803 470C1805.76 470 1808 472.239 1808 475Z" fill="#D9D9D9" fill-opacity="0.48"/>
<path d="M1436 615C1436 617.761 1433.76 620 1431 620C1428.24 620 1426 617.761 1426 615C1426 612.239 1428.24 610 1431 610C1433.76 610 1436 612.239 1436 615Z" fill="#D9D9D9" fill-opacity="0.48"/>
<path d="M1793 1075C1793 1077.76 1790.76 1080 1788 1080C1785.24 1080 1783 1077.76 1783 1075C1783 1072.24 1785.24 1070 1788 1070C1790.76 1070 1793 1072.24 1793 1075Z" fill="#D9D9D9" fill-opacity="0.48"/>
<path d="M1474 884C1474 886.761 1471.76 889 1469 889C1466.24 889 1464 886.761 1464 884C1464 881.239 1466.24 879 1469 879C1471.76 879 1474 881.239 1474 884Z" fill="#D9D9D9" fill-opacity="0.48"/>
<path d="M1564 1246C1564 1248.76 1561.76 1251 1559 1251C1556.24 1251 1554 1248.76 1554 1246C1554 1243.24 1556.24 1241 1559 1241C1561.76 1241 1564 1243.24 1564 1246Z" fill="#D9D9D9" fill-opacity="0.48"/>
<path d="M1702 204C1702 206.761 1699.76 209 1697 209C1694.24 209 1692 206.761 1692 204C1692 201.239 1694.24 199 1697 199C1699.76 199 1702 201.239 1702 204Z" fill="#D9D9D9" fill-opacity="0.48"/>
<path d="M1786 112C1786 114.761 1783.76 117 1781 117C1778.24 117 1776 114.761 1776 112C1776 109.239 1778.24 107 1781 107C1783.76 107 1786 109.239 1786 112Z" fill="#D9D9D9" fill-opacity="0.48"/>
<path d="M1503 187C1503 189.761 1500.76 192 1498 192C1495.24 192 1493 189.761 1493 187C1493 184.239 1495.24 182 1498 182C1500.76 182 1503 184.239 1503 187Z" fill="#D9D9D9" fill-opacity="0.48"/>
<path d="M221 279C221 281.761 218.761 284 216 284C213.239 284 211 281.761 211 279C211 276.239 213.239 274 216 274C218.761 274 221 276.239 221 279Z" fill="#D9D9D9" fill-opacity="0.48"/>
<path d="M179 156C179 158.761 176.761 161 174 161C171.239 161 169 158.761 169 156C169 153.239 171.239 151 174 151C176.761 151 179 153.239 179 156Z" fill="#D9D9D9" fill-opacity="0.48"/>
<path d="M22 336C22 338.761 19.7614 341 17 341C14.2386 341 12 338.761 12 336C12 333.239 14.2386 331 17 331C19.7614 331 22 333.239 22 336Z" fill="#D9D9D9" fill-opacity="0.48"/>
<path d="M1810 3467C1810 3469.76 1807.76 3472 1805 3472C1802.24 3472 1800 3469.76 1800 3467C1800 3464.24 1802.24 3462 1805 3462C1807.76 3462 1810 3464.24 1810 3467Z" fill="#D9D9D9" fill-opacity="0.48"/>
<path d="M1387.1 1462C1538.43 1462 1661.1 1584.67 1661.1 1736C1661.1 1887.33 1538.43 2010 1387.1 2010C1272.09 2010 1173.64 1939.14 1133 1838.7C1174.44 1885.22 1234.8 1914.51 1301.99 1914.51C1426.95 1914.51 1528.25 1813.22 1528.25 1688.26C1528.25 1577.12 1448.12 1484.7 1342.49 1465.61C1357.01 1463.24 1371.91 1462 1387.1 1462Z" fill="url(#paint1_linear_27_292)"/>
<path d="M1224.4 1763C1256.97 1763 1286.29 1776.95 1306.7 1799.2C1329.01 1779.44 1358.36 1767.45 1390.5 1767.45C1444.03 1767.45 1489.79 1800.72 1508.24 1847.7C1527.79 1835.32 1550.97 1828.15 1575.82 1828.15C1645.66 1828.15 1702.27 1884.76 1702.27 1954.6C1702.27 2024.43 1645.66 2081.04 1575.82 2081.04C1575.08 2081.04 1574.34 2081.04 1573.6 2081.02C1552.16 2120.33 1510.45 2147 1462.52 2147C1422.25 2147 1386.38 2128.18 1363.23 2098.85C1340.06 2127.94 1304.33 2146.6 1264.25 2146.6C1228.84 2146.6 1196.84 2132.04 1173.88 2108.59C1151.74 2125.82 1123.92 2136.08 1093.7 2136.08C1021.52 2136.08 963 2077.56 963 2005.38C963 1933.19 1021.52 1874.68 1093.7 1874.68C1100.16 1874.68 1106.51 1875.15 1112.72 1876.06C1112.72 1875.6 1112.72 1875.14 1112.72 1874.68C1112.72 1813 1162.72 1763 1224.4 1763Z" fill="url(#paint2_linear_27_292)"/>
<path d="M1320.4 644C1352.97 644 1382.29 657.949 1402.7 680.199C1425.01 660.444 1454.36 648.451 1486.5 648.451C1540.03 648.451 1585.79 681.716 1604.24 728.703C1623.79 716.318 1646.97 709.146 1671.82 709.146C1741.66 709.147 1798.27 765.76 1798.27 835.596C1798.27 905.431 1741.66 962.044 1671.82 962.044C1671.08 962.044 1670.34 962.035 1669.6 962.022C1648.16 1001.33 1606.45 1028 1558.52 1028C1518.25 1028 1482.38 1009.18 1459.23 979.848C1436.06 1008.94 1400.33 1027.6 1360.25 1027.6C1324.84 1027.6 1292.84 1013.04 1269.88 989.592C1247.74 1006.82 1219.92 1017.08 1189.7 1017.08C1117.52 1017.08 1059 958.559 1059 886.377C1059 814.195 1117.52 755.68 1189.7 755.68C1196.16 755.68 1202.51 756.151 1208.72 757.057C1208.72 756.598 1208.72 756.139 1208.72 755.68C1208.72 694.001 1258.72 644 1320.4 644Z" fill="url(#paint3_linear_27_292)"/>
<path d="M1320.4 644C1352.97 644 1382.29 657.949 1402.7 680.199C1425.01 660.444 1454.36 648.451 1486.5 648.451C1540.03 648.451 1585.79 681.716 1604.24 728.703C1623.79 716.318 1646.97 709.146 1671.82 709.146C1741.66 709.147 1798.27 765.76 1798.27 835.596C1798.27 905.431 1741.66 962.044 1671.82 962.044C1671.08 962.044 1670.34 962.035 1669.6 962.022C1648.16 1001.33 1606.45 1028 1558.52 1028C1518.25 1028 1482.38 1009.18 1459.23 979.848C1436.06 1008.94 1400.33 1027.6 1360.25 1027.6C1324.84 1027.6 1292.84 1013.04 1269.88 989.592C1247.74 1006.82 1219.92 1017.08 1189.7 1017.08C1117.52 1017.08 1059 958.559 1059 886.377C1059 814.195 1117.52 755.68 1189.7 755.68C1196.16 755.68 1202.51 756.151 1208.72 757.057C1208.72 756.598 1208.72 756.139 1208.72 755.68C1208.72 694.001 1258.72 644 1320.4 644Z" fill="url(#paint4_linear_27_292)"/>
<path d="M1320.4 644C1352.97 644 1382.29 657.949 1402.7 680.199C1425.01 660.444 1454.36 648.451 1486.5 648.451C1540.03 648.451 1585.79 681.716 1604.24 728.703C1623.79 716.318 1646.97 709.146 1671.82 709.146C1741.66 709.147 1798.27 765.76 1798.27 835.596C1798.27 905.431 1741.66 962.044 1671.82 962.044C1671.08 962.044 1670.34 962.035 1669.6 962.022C1648.16 1001.33 1606.45 1028 1558.52 1028C1518.25 1028 1482.38 1009.18 1459.23 979.848C1436.06 1008.94 1400.33 1027.6 1360.25 1027.6C1324.84 1027.6 1292.84 1013.04 1269.88 989.592C1247.74 1006.82 1219.92 1017.08 1189.7 1017.08C1117.52 1017.08 1059 958.559 1059 886.377C1059 814.195 1117.52 755.68 1189.7 755.68C1196.16 755.68 1202.51 756.151 1208.72 757.057C1208.72 756.598 1208.72 756.139 1208.72 755.68C1208.72 694.001 1258.72 644 1320.4 644Z" fill="url(#paint5_linear_27_292)"/>
<path d="M1353.4 683C1385.97 683 1415.29 696.949 1435.7 719.199C1458.01 699.444 1487.36 687.451 1519.5 687.451C1573.03 687.451 1618.79 720.716 1637.24 767.703C1656.79 755.318 1679.97 748.146 1704.82 748.146C1774.66 748.147 1831.27 804.76 1831.27 874.596C1831.27 944.431 1774.66 1001.04 1704.82 1001.04C1704.08 1001.04 1703.34 1001.04 1702.6 1001.02C1681.16 1040.33 1639.45 1067 1591.52 1067C1551.25 1067 1515.38 1048.18 1492.23 1018.85C1469.06 1047.94 1433.33 1066.6 1393.25 1066.6C1357.84 1066.6 1325.84 1052.04 1302.88 1028.59C1280.74 1045.82 1252.92 1056.08 1222.7 1056.08C1150.52 1056.08 1092 997.559 1092 925.377C1092 853.195 1150.52 794.68 1222.7 794.68C1229.16 794.68 1235.51 795.151 1241.72 796.057C1241.72 795.598 1241.72 795.139 1241.72 794.68C1241.72 733.001 1291.72 683 1353.4 683Z" fill="url(#paint6_linear_27_292)"/>
<path d="M1353.4 683C1385.97 683 1415.29 696.949 1435.7 719.199C1458.01 699.444 1487.36 687.451 1519.5 687.451C1573.03 687.451 1618.79 720.716 1637.24 767.703C1656.79 755.318 1679.97 748.146 1704.82 748.146C1774.66 748.147 1831.27 804.76 1831.27 874.596C1831.27 944.431 1774.66 1001.04 1704.82 1001.04C1704.08 1001.04 1703.34 1001.04 1702.6 1001.02C1681.16 1040.33 1639.45 1067 1591.52 1067C1551.25 1067 1515.38 1048.18 1492.23 1018.85C1469.06 1047.94 1433.33 1066.6 1393.25 1066.6C1357.84 1066.6 1325.84 1052.04 1302.88 1028.59C1280.74 1045.82 1252.92 1056.08 1222.7 1056.08C1150.52 1056.08 1092 997.559 1092 925.377C1092 853.195 1150.52 794.68 1222.7 794.68C1229.16 794.68 1235.51 795.151 1241.72 796.057C1241.72 795.598 1241.72 795.139 1241.72 794.68C1241.72 733.001 1291.72 683 1353.4 683Z" fill="url(#paint7_linear_27_292)"/>
<path d="M1353.4 683C1385.97 683 1415.29 696.949 1435.7 719.199C1458.01 699.444 1487.36 687.451 1519.5 687.451C1573.03 687.451 1618.79 720.716 1637.24 767.703C1656.79 755.318 1679.97 748.146 1704.82 748.146C1774.66 748.147 1831.27 804.76 1831.27 874.596C1831.27 944.431 1774.66 1001.04 1704.82 1001.04C1704.08 1001.04 1703.34 1001.04 1702.6 1001.02C1681.16 1040.33 1639.45 1067 1591.52 1067C1551.25 1067 1515.38 1048.18 1492.23 1018.85C1469.06 1047.94 1433.33 1066.6 1393.25 1066.6C1357.84 1066.6 1325.84 1052.04 1302.88 1028.59C1280.74 1045.82 1252.92 1056.08 1222.7 1056.08C1150.52 1056.08 1092 997.559 1092 925.377C1092 853.195 1150.52 794.68 1222.7 794.68C1229.16 794.68 1235.51 795.151 1241.72 796.057C1241.72 795.598 1241.72 795.139 1241.72 794.68C1241.72 733.001 1291.72 683 1353.4 683Z" fill="url(#paint8_linear_27_292)"/>
<path d="M1353.4 683C1385.97 683 1415.29 696.949 1435.7 719.199C1458.01 699.444 1487.36 687.451 1519.5 687.451C1573.03 687.451 1618.79 720.716 1637.24 767.703C1656.79 755.318 1679.97 748.146 1704.82 748.146C1774.66 748.147 1831.27 804.76 1831.27 874.596C1831.27 944.431 1774.66 1001.04 1704.82 1001.04C1704.08 1001.04 1703.34 1001.04 1702.6 1001.02C1681.16 1040.33 1639.45 1067 1591.52 1067C1551.25 1067 1515.38 1048.18 1492.23 1018.85C1469.06 1047.94 1433.33 1066.6 1393.25 1066.6C1357.84 1066.6 1325.84 1052.04 1302.88 1028.59C1280.74 1045.82 1252.92 1056.08 1222.7 1056.08C1150.52 1056.08 1092 997.559 1092 925.377C1092 853.195 1150.52 794.68 1222.7 794.68C1229.16 794.68 1235.51 795.151 1241.72 796.057C1241.72 795.598 1241.72 795.139 1241.72 794.68C1241.72 733.001 1291.72 683 1353.4 683Z" fill="url(#paint9_linear_27_292)"/>
<path d="M1353.4 656C1385.97 656 1415.29 669.949 1435.7 692.199C1458.01 672.444 1487.36 660.451 1519.5 660.451C1573.03 660.451 1618.79 693.716 1637.24 740.703C1656.79 728.318 1679.97 721.146 1704.82 721.146C1774.66 721.147 1831.27 777.76 1831.27 847.596C1831.27 917.431 1774.66 974.044 1704.82 974.044C1704.08 974.044 1703.34 974.035 1702.6 974.022C1681.16 1013.33 1639.45 1040 1591.52 1040C1551.25 1040 1515.38 1021.18 1492.23 991.848C1469.06 1020.94 1433.33 1039.6 1393.25 1039.6C1357.84 1039.6 1325.84 1025.04 1302.88 1001.59C1280.74 1018.82 1252.92 1029.08 1222.7 1029.08C1150.52 1029.08 1092 970.559 1092 898.377C1092 826.195 1150.52 767.68 1222.7 767.68C1229.16 767.68 1235.51 768.151 1241.72 769.057C1241.72 768.598 1241.72 768.139 1241.72 767.68C1241.72 706.001 1291.72 656 1353.4 656Z" fill="url(#paint10_linear_27_292)"/>
<path d="M296.396 1256C328.972 1256 358.289 1269.95 378.704 1292.2C401.014 1272.44 430.355 1260.45 462.498 1260.45C516.03 1260.45 561.793 1293.72 580.242 1340.7C599.791 1328.32 622.969 1321.15 647.822 1321.15C717.658 1321.15 774.271 1377.76 774.271 1447.6C774.27 1517.43 717.658 1574.04 647.822 1574.04C647.08 1574.04 646.34 1574.04 645.601 1574.02C624.155 1613.33 582.455 1640 534.523 1640C494.255 1640 458.384 1621.18 435.227 1591.85C412.06 1620.94 376.335 1639.6 336.252 1639.6C300.845 1639.6 268.836 1625.04 245.882 1601.59C223.743 1618.82 195.919 1629.08 165.697 1629.08C93.5151 1629.08 35 1570.56 35 1498.38C35.0002 1426.19 93.5152 1367.68 165.697 1367.68C172.16 1367.68 178.513 1368.15 184.724 1369.06C184.718 1368.6 184.716 1368.14 184.716 1367.68C184.716 1306 234.717 1256 296.396 1256Z" fill="url(#paint11_linear_27_292)"/>
<path d="M296.395 1498.38C296.395 1570.56 237.88 1629.07 165.698 1629.07C93.5153 1629.07 35 1570.56 35 1498.38C35 1426.19 93.5153 1367.68 165.698 1367.68C237.88 1367.68 296.395 1426.19 296.395 1498.38Z" fill="#D9D9D9"/>
<path d="M408.075 1367.68C408.075 1429.36 358.074 1479.36 296.395 1479.36C234.716 1479.36 184.715 1429.36 184.715 1367.68C184.715 1306 234.716 1256 296.395 1256C358.074 1256 408.075 1306 408.075 1367.68Z" fill="#D9D9D9"/>
<path d="M462.701 1513.15C462.701 1582.98 406.088 1639.6 336.252 1639.6C266.416 1639.6 209.803 1582.98 209.803 1513.15C209.803 1443.31 266.416 1386.7 336.252 1386.7C406.088 1386.7 462.701 1443.31 462.701 1513.15Z" fill="#D9D9D9"/>
<path d="M774.271 1447.6C774.271 1517.43 717.658 1574.04 647.822 1574.04C577.986 1574.04 521.373 1517.43 521.373 1447.6C521.373 1377.76 577.986 1321.15 647.822 1321.15C717.658 1321.15 774.271 1377.76 774.271 1447.6Z" fill="#D9D9D9"/>
<path d="M660.973 1513.55C660.973 1583.39 604.36 1640 534.524 1640C464.688 1640 408.075 1583.39 408.075 1513.55C408.075 1443.72 464.688 1387.1 534.524 1387.1C604.36 1387.1 660.973 1443.72 660.973 1513.55Z" fill="#D9D9D9"/>
<path d="M588.947 1386.9C588.947 1456.74 532.334 1513.35 462.498 1513.35C392.663 1513.35 336.05 1456.74 336.05 1386.9C336.05 1317.06 392.663 1260.45 462.498 1260.45C532.334 1260.45 588.947 1317.06 588.947 1386.9Z" fill="#D9D9D9"/>
<path d="M296.395 1498.38C296.395 1570.56 237.88 1629.07 165.698 1629.07C93.5153 1629.07 35 1570.56 35 1498.38C35 1426.19 93.5153 1367.68 165.698 1367.68C237.88 1367.68 296.395 1426.19 296.395 1498.38Z" fill="#D9D9D9"/>
<path d="M408.075 1367.68C408.075 1429.36 358.074 1479.36 296.395 1479.36C234.716 1479.36 184.715 1429.36 184.715 1367.68C184.715 1306 234.716 1256 296.395 1256C358.074 1256 408.075 1306 408.075 1367.68Z" fill="#D9D9D9"/>
<path d="M462.701 1513.15C462.701 1582.98 406.088 1639.6 336.252 1639.6C266.416 1639.6 209.803 1582.98 209.803 1513.15C209.803 1443.31 266.416 1386.7 336.252 1386.7C406.088 1386.7 462.701 1443.31 462.701 1513.15Z" fill="#D9D9D9"/>
<path d="M774.271 1447.6C774.271 1517.43 717.658 1574.04 647.822 1574.04C577.986 1574.04 521.373 1517.43 521.373 1447.6C521.373 1377.76 577.986 1321.15 647.822 1321.15C717.658 1321.15 774.271 1377.76 774.271 1447.6Z" fill="#D9D9D9"/>
<path d="M660.973 1513.55C660.973 1583.39 604.36 1640 534.524 1640C464.688 1640 408.075 1583.39 408.075 1513.55C408.075 1443.72 464.688 1387.1 534.524 1387.1C604.36 1387.1 660.973 1443.72 660.973 1513.55Z" fill="#D9D9D9"/>
<path d="M588.947 1386.9C588.947 1456.74 532.334 1513.35 462.498 1513.35C392.663 1513.35 336.05 1456.74 336.05 1386.9C336.05 1317.06 392.663 1260.45 462.498 1260.45C532.334 1260.45 588.947 1317.06 588.947 1386.9Z" fill="#D9D9D9"/>
<path d="M296.395 1498.38C296.395 1570.56 237.88 1629.07 165.698 1629.07C93.5153 1629.07 35 1570.56 35 1498.38C35 1426.19 93.5153 1367.68 165.698 1367.68C237.88 1367.68 296.395 1426.19 296.395 1498.38Z" fill="#D9D9D9"/>
<path d="M408.075 1367.68C408.075 1429.36 358.074 1479.36 296.395 1479.36C234.716 1479.36 184.715 1429.36 184.715 1367.68C184.715 1306 234.716 1256 296.395 1256C358.074 1256 408.075 1306 408.075 1367.68Z" fill="#D9D9D9"/>
<path d="M462.701 1513.15C462.701 1582.98 406.088 1639.6 336.252 1639.6C266.416 1639.6 209.803 1582.98 209.803 1513.15C209.803 1443.31 266.416 1386.7 336.252 1386.7C406.088 1386.7 462.701 1443.31 462.701 1513.15Z" fill="#D9D9D9"/>
<path d="M774.271 1447.6C774.271 1517.43 717.658 1574.04 647.822 1574.04C577.986 1574.04 521.373 1517.43 521.373 1447.6C521.373 1377.76 577.986 1321.15 647.822 1321.15C717.658 1321.15 774.271 1377.76 774.271 1447.6Z" fill="#D9D9D9"/>
<path d="M660.973 1513.55C660.973 1583.39 604.36 1640 534.524 1640C464.688 1640 408.075 1583.39 408.075 1513.55C408.075 1443.72 464.688 1387.1 534.524 1387.1C604.36 1387.1 660.973 1443.72 660.973 1513.55Z" fill="#D9D9D9"/>
<path d="M588.947 1386.9C588.947 1456.74 532.334 1513.35 462.498 1513.35C392.663 1513.35 336.05 1456.74 336.05 1386.9C336.05 1317.06 392.663 1260.45 462.498 1260.45C532.334 1260.45 588.947 1317.06 588.947 1386.9Z" fill="#D9D9D9"/>
<path d="M296.395 1498.38C296.395 1570.56 237.88 1629.07 165.698 1629.07C93.5153 1629.07 35 1570.56 35 1498.38C35 1426.19 93.5153 1367.68 165.698 1367.68C237.88 1367.68 296.395 1426.19 296.395 1498.38Z" fill="#D9D9D9"/>
<path d="M408.075 1367.68C408.075 1429.36 358.074 1479.36 296.395 1479.36C234.716 1479.36 184.715 1429.36 184.715 1367.68C184.715 1306 234.716 1256 296.395 1256C358.074 1256 408.075 1306 408.075 1367.68Z" fill="#D9D9D9"/>
<path d="M462.701 1513.15C462.701 1582.98 406.088 1639.6 336.252 1639.6C266.416 1639.6 209.803 1582.98 209.803 1513.15C209.803 1443.31 266.416 1386.7 336.252 1386.7C406.088 1386.7 462.701 1443.31 462.701 1513.15Z" fill="#D9D9D9"/>
<path d="M774.271 1447.6C774.271 1517.43 717.658 1574.04 647.822 1574.04C577.986 1574.04 521.373 1517.43 521.373 1447.6C521.373 1377.76 577.986 1321.15 647.822 1321.15C717.658 1321.15 774.271 1377.76 774.271 1447.6Z" fill="#D9D9D9"/>
<path d="M660.973 1513.55C660.973 1583.39 604.36 1640 534.524 1640C464.688 1640 408.075 1583.39 408.075 1513.55C408.075 1443.72 464.688 1387.1 534.524 1387.1C604.36 1387.1 660.973 1443.72 660.973 1513.55Z" fill="#D9D9D9"/>
<path d="M588.947 1386.9C588.947 1456.74 532.334 1513.35 462.498 1513.35C392.663 1513.35 336.05 1456.74 336.05 1386.9C336.05 1317.06 392.663 1260.45 462.498 1260.45C532.334 1260.45 588.947 1317.06 588.947 1386.9Z" fill="#D9D9D9"/>
<path d="M335.395 1456.38C335.395 1528.56 276.88 1587.07 204.698 1587.07C132.515 1587.07 74 1528.56 74 1456.38C74 1384.19 132.515 1325.68 204.698 1325.68C276.88 1325.68 335.395 1384.19 335.395 1456.38Z" fill="#D9D9D9"/>
<path d="M447.075 1325.68C447.075 1387.36 397.074 1437.36 335.395 1437.36C273.716 1437.36 223.715 1387.36 223.715 1325.68C223.715 1264 273.716 1214 335.395 1214C397.074 1214 447.075 1264 447.075 1325.68Z" fill="#D9D9D9"/>
<path d="M501.701 1471.15C501.701 1540.98 445.088 1597.6 375.252 1597.6C305.416 1597.6 248.803 1540.98 248.803 1471.15C248.803 1401.31 305.416 1344.7 375.252 1344.7C445.088 1344.7 501.701 1401.31 501.701 1471.15Z" fill="#D9D9D9"/>
<path d="M813.271 1405.6C813.271 1475.43 756.658 1532.04 686.822 1532.04C616.986 1532.04 560.373 1475.43 560.373 1405.6C560.373 1335.76 616.986 1279.15 686.822 1279.15C756.658 1279.15 813.271 1335.76 813.271 1405.6Z" fill="#D9D9D9"/>
<path d="M699.973 1471.55C699.973 1541.39 643.36 1598 573.524 1598C503.688 1598 447.075 1541.39 447.075 1471.55C447.075 1401.72 503.688 1345.1 573.524 1345.1C643.36 1345.1 699.973 1401.72 699.973 1471.55Z" fill="#D9D9D9"/>
<path d="M627.947 1344.9C627.947 1414.74 571.334 1471.35 501.498 1471.35C431.663 1471.35 375.05 1414.74 375.05 1344.9C375.05 1275.06 431.663 1218.45 501.498 1218.45C571.334 1218.45 627.947 1275.06 627.947 1344.9Z" fill="#D9D9D9"/>
<path d="M509.396 1122C541.972 1122 571.289 1135.95 591.704 1158.2C614.014 1138.44 643.355 1126.45 675.498 1126.45C729.03 1126.45 774.793 1159.72 793.242 1206.7C812.791 1194.32 835.969 1187.15 860.822 1187.15C930.658 1187.15 987.271 1243.76 987.271 1313.6C987.27 1383.43 930.658 1440.04 860.822 1440.04C860.08 1440.04 859.34 1440.04 858.601 1440.02C837.155 1479.33 795.455 1506 747.523 1506C707.255 1506 671.384 1487.18 648.227 1457.85C625.06 1486.94 589.335 1505.6 549.252 1505.6C513.845 1505.6 481.836 1491.04 458.882 1467.59C436.743 1484.82 408.919 1495.08 378.697 1495.08C306.515 1495.08 248 1436.56 248 1364.38C248 1292.19 306.515 1233.68 378.697 1233.68C385.16 1233.68 391.513 1234.15 397.724 1235.06C397.718 1234.6 397.716 1234.14 397.716 1233.68C397.716 1172 447.717 1122 509.396 1122Z" fill="url(#paint12_linear_27_292)"/>
<path d="M509.396 1122C541.972 1122 571.289 1135.95 591.704 1158.2C614.014 1138.44 643.355 1126.45 675.498 1126.45C729.03 1126.45 774.793 1159.72 793.242 1206.7C812.791 1194.32 835.969 1187.15 860.822 1187.15C930.658 1187.15 987.271 1243.76 987.271 1313.6C987.27 1383.43 930.658 1440.04 860.822 1440.04C860.08 1440.04 859.34 1440.04 858.601 1440.02C837.155 1479.33 795.455 1506 747.523 1506C707.255 1506 671.384 1487.18 648.227 1457.85C625.06 1486.94 589.335 1505.6 549.252 1505.6C513.845 1505.6 481.836 1491.04 458.882 1467.59C436.743 1484.82 408.919 1495.08 378.697 1495.08C306.515 1495.08 248 1436.56 248 1364.38C248 1292.19 306.515 1233.68 378.697 1233.68C385.16 1233.68 391.513 1234.15 397.724 1235.06C397.718 1234.6 397.716 1234.14 397.716 1233.68C397.716 1172 447.717 1122 509.396 1122Z" fill="url(#paint13_linear_27_292)"/>
<path d="M509.396 1122C541.972 1122 571.289 1135.95 591.704 1158.2C614.014 1138.44 643.355 1126.45 675.498 1126.45C729.03 1126.45 774.793 1159.72 793.242 1206.7C812.791 1194.32 835.969 1187.15 860.822 1187.15C930.658 1187.15 987.271 1243.76 987.271 1313.6C987.27 1383.43 930.658 1440.04 860.822 1440.04C860.08 1440.04 859.34 1440.04 858.601 1440.02C837.155 1479.33 795.455 1506 747.523 1506C707.255 1506 671.384 1487.18 648.227 1457.85C625.06 1486.94 589.335 1505.6 549.252 1505.6C513.845 1505.6 481.836 1491.04 458.882 1467.59C436.743 1484.82 408.919 1495.08 378.697 1495.08C306.515 1495.08 248 1436.56 248 1364.38C248 1292.19 306.515 1233.68 378.697 1233.68C385.16 1233.68 391.513 1234.15 397.724 1235.06C397.718 1234.6 397.716 1234.14 397.716 1233.68C397.716 1172 447.717 1122 509.396 1122Z" fill="url(#paint14_linear_27_292)"/>
<path d="M509.396 1122C541.972 1122 571.289 1135.95 591.704 1158.2C614.014 1138.44 643.355 1126.45 675.498 1126.45C729.03 1126.45 774.793 1159.72 793.242 1206.7C812.791 1194.32 835.969 1187.15 860.822 1187.15C930.658 1187.15 987.271 1243.76 987.271 1313.6C987.27 1383.43 930.658 1440.04 860.822 1440.04C860.08 1440.04 859.34 1440.04 858.601 1440.02C837.155 1479.33 795.455 1506 747.523 1506C707.255 1506 671.384 1487.18 648.227 1457.85C625.06 1486.94 589.335 1505.6 549.252 1505.6C513.845 1505.6 481.836 1491.04 458.882 1467.59C436.743 1484.82 408.919 1495.08 378.697 1495.08C306.515 1495.08 248 1436.56 248 1364.38C248 1292.19 306.515 1233.68 378.697 1233.68C385.16 1233.68 391.513 1234.15 397.724 1235.06C397.718 1234.6 397.716 1234.14 397.716 1233.68C397.716 1172 447.717 1122 509.396 1122Z" fill="url(#paint15_linear_27_292)"/>
<path d="M335.396 1064C367.972 1064 397.289 1077.95 417.704 1100.2C440.014 1080.44 469.355 1068.45 501.498 1068.45C555.03 1068.45 600.793 1101.72 619.242 1148.7C638.791 1136.32 661.969 1129.15 686.822 1129.15C756.658 1129.15 813.271 1185.76 813.271 1255.6C813.27 1325.43 756.658 1382.04 686.822 1382.04C686.08 1382.04 685.34 1382.04 684.601 1382.02C663.155 1421.33 621.455 1448 573.523 1448C533.255 1448 497.384 1429.18 474.227 1399.85C451.06 1428.94 415.335 1447.6 375.252 1447.6C339.845 1447.6 307.836 1433.04 284.882 1409.59C262.743 1426.82 234.919 1437.08 204.697 1437.08C132.515 1437.08 74 1378.56 74 1306.38C74.0002 1234.19 132.515 1175.68 204.697 1175.68C211.16 1175.68 217.513 1176.15 223.724 1177.06C223.718 1176.6 223.716 1176.14 223.716 1175.68C223.716 1114 273.717 1064 335.396 1064Z" fill="url(#paint16_linear_27_292)"/>
<path d="M335.396 1064C367.972 1064 397.289 1077.95 417.704 1100.2C440.014 1080.44 469.355 1068.45 501.498 1068.45C555.03 1068.45 600.793 1101.72 619.242 1148.7C638.791 1136.32 661.969 1129.15 686.822 1129.15C756.658 1129.15 813.271 1185.76 813.271 1255.6C813.27 1325.43 756.658 1382.04 686.822 1382.04C686.08 1382.04 685.34 1382.04 684.601 1382.02C663.155 1421.33 621.455 1448 573.523 1448C533.255 1448 497.384 1429.18 474.227 1399.85C451.06 1428.94 415.335 1447.6 375.252 1447.6C339.845 1447.6 307.836 1433.04 284.882 1409.59C262.743 1426.82 234.919 1437.08 204.697 1437.08C132.515 1437.08 74 1378.56 74 1306.38C74.0002 1234.19 132.515 1175.68 204.697 1175.68C211.16 1175.68 217.513 1176.15 223.724 1177.06C223.718 1176.6 223.716 1176.14 223.716 1175.68C223.716 1114 273.717 1064 335.396 1064Z" fill="url(#paint17_linear_27_292)"/>
<path d="M335.396 1064C367.972 1064 397.289 1077.95 417.704 1100.2C440.014 1080.44 469.355 1068.45 501.498 1068.45C555.03 1068.45 600.793 1101.72 619.242 1148.7C638.791 1136.32 661.969 1129.15 686.822 1129.15C756.658 1129.15 813.271 1185.76 813.271 1255.6C813.27 1325.43 756.658 1382.04 686.822 1382.04C686.08 1382.04 685.34 1382.04 684.601 1382.02C663.155 1421.33 621.455 1448 573.523 1448C533.255 1448 497.384 1429.18 474.227 1399.85C451.06 1428.94 415.335 1447.6 375.252 1447.6C339.845 1447.6 307.836 1433.04 284.882 1409.59C262.743 1426.82 234.919 1437.08 204.697 1437.08C132.515 1437.08 74 1378.56 74 1306.38C74.0002 1234.19 132.515 1175.68 204.697 1175.68C211.16 1175.68 217.513 1176.15 223.724 1177.06C223.718 1176.6 223.716 1176.14 223.716 1175.68C223.716 1114 273.717 1064 335.396 1064Z" fill="url(#paint18_linear_27_292)"/>
<path d="M509.396 1122C541.972 1122 571.289 1135.95 591.704 1158.2C614.014 1138.44 643.355 1126.45 675.498 1126.45C729.03 1126.45 774.793 1159.72 793.242 1206.7C812.791 1194.32 835.969 1187.15 860.822 1187.15C930.658 1187.15 987.271 1243.76 987.271 1313.6C987.27 1383.43 930.658 1440.04 860.822 1440.04C860.08 1440.04 859.34 1440.04 858.601 1440.02C837.155 1479.33 795.455 1506 747.523 1506C707.255 1506 671.384 1487.18 648.227 1457.85C625.06 1486.94 589.335 1505.6 549.252 1505.6C513.845 1505.6 481.836 1491.04 458.882 1467.59C436.743 1484.82 408.919 1495.08 378.697 1495.08C306.515 1495.08 248 1436.56 248 1364.38C248 1292.19 306.515 1233.68 378.697 1233.68C385.16 1233.68 391.513 1234.15 397.724 1235.06C397.718 1234.6 397.716 1234.14 397.716 1233.68C397.716 1172 447.717 1122 509.396 1122Z" fill="url(#paint19_linear_27_292)"/>
<path d="M665.396 1091C697.972 1091 727.289 1104.95 747.704 1127.2C770.014 1107.44 799.355 1095.45 831.498 1095.45C885.03 1095.45 930.793 1128.72 949.242 1175.7C968.791 1163.32 991.969 1156.15 1016.82 1156.15C1086.66 1156.15 1143.27 1212.76 1143.27 1282.6C1143.27 1352.43 1086.66 1409.04 1016.82 1409.04C1016.08 1409.04 1015.34 1409.04 1014.6 1409.02C993.155 1448.33 951.455 1475 903.523 1475C863.255 1475 827.384 1456.18 804.227 1426.85C781.06 1455.94 745.335 1474.6 705.252 1474.6C669.845 1474.6 637.836 1460.04 614.882 1436.59C592.743 1453.82 564.919 1464.08 534.697 1464.08C462.515 1464.08 404 1405.56 404 1333.38C404 1261.19 462.515 1202.68 534.697 1202.68C541.16 1202.68 547.513 1203.15 553.724 1204.06C553.718 1203.6 553.716 1203.14 553.716 1202.68C553.716 1141 603.717 1091 665.396 1091Z" fill="url(#paint20_linear_27_292)"/>
<path d="M665.396 1091C697.972 1091 727.289 1104.95 747.704 1127.2C770.014 1107.44 799.355 1095.45 831.498 1095.45C885.03 1095.45 930.793 1128.72 949.242 1175.7C968.791 1163.32 991.969 1156.15 1016.82 1156.15C1086.66 1156.15 1143.27 1212.76 1143.27 1282.6C1143.27 1352.43 1086.66 1409.04 1016.82 1409.04C1016.08 1409.04 1015.34 1409.04 1014.6 1409.02C993.155 1448.33 951.455 1475 903.523 1475C863.255 1475 827.384 1456.18 804.227 1426.85C781.06 1455.94 745.335 1474.6 705.252 1474.6C669.845 1474.6 637.836 1460.04 614.882 1436.59C592.743 1453.82 564.919 1464.08 534.697 1464.08C462.515 1464.08 404 1405.56 404 1333.38C404 1261.19 462.515 1202.68 534.697 1202.68C541.16 1202.68 547.513 1203.15 553.724 1204.06C553.718 1203.6 553.716 1203.14 553.716 1202.68C553.716 1141 603.717 1091 665.396 1091Z" fill="url(#paint21_linear_27_292)"/>
<path d="M261.396 1142C293.972 1142 323.289 1155.95 343.704 1178.2C366.014 1158.44 395.355 1146.45 427.498 1146.45C481.03 1146.45 526.793 1179.72 545.242 1226.7C564.791 1214.32 587.969 1207.15 612.822 1207.15C682.658 1207.15 739.271 1263.76 739.271 1333.6C739.27 1403.43 682.658 1460.04 612.822 1460.04C612.08 1460.04 611.34 1460.04 610.601 1460.02C589.155 1499.33 547.455 1526 499.523 1526C459.255 1526 423.384 1507.18 400.227 1477.85C377.06 1506.94 341.335 1525.6 301.252 1525.6C265.845 1525.6 233.836 1511.04 210.882 1487.59C188.743 1504.82 160.919 1515.08 130.697 1515.08C58.5151 1515.08 0 1456.56 0 1384.38C0.000158827 1312.19 58.5152 1253.68 130.697 1253.68C137.16 1253.68 143.513 1254.15 149.724 1255.06C149.718 1254.6 149.716 1254.14 149.716 1253.68C149.716 1192 199.717 1142 261.396 1142Z" fill="url(#paint22_linear_27_292)"/>
<path d="M261.396 1142C293.972 1142 323.289 1155.95 343.704 1178.2C366.014 1158.44 395.355 1146.45 427.498 1146.45C481.03 1146.45 526.793 1179.72 545.242 1226.7C564.791 1214.32 587.969 1207.15 612.822 1207.15C682.658 1207.15 739.271 1263.76 739.271 1333.6C739.27 1403.43 682.658 1460.04 612.822 1460.04C612.08 1460.04 611.34 1460.04 610.601 1460.02C589.155 1499.33 547.455 1526 499.523 1526C459.255 1526 423.384 1507.18 400.227 1477.85C377.06 1506.94 341.335 1525.6 301.252 1525.6C265.845 1525.6 233.836 1511.04 210.882 1487.59C188.743 1504.82 160.919 1515.08 130.697 1515.08C58.5151 1515.08 0 1456.56 0 1384.38C0.000158827 1312.19 58.5152 1253.68 130.697 1253.68C137.16 1253.68 143.513 1254.15 149.724 1255.06C149.718 1254.6 149.716 1254.14 149.716 1253.68C149.716 1192 199.717 1142 261.396 1142Z" fill="url(#paint23_linear_27_292)"/>
<path d="M464.396 1007C496.972 1007 526.289 1020.95 546.704 1043.2C569.014 1023.44 598.355 1011.45 630.498 1011.45C684.03 1011.45 729.793 1044.72 748.242 1091.7C767.791 1079.32 790.969 1072.15 815.822 1072.15C885.658 1072.15 942.271 1128.76 942.271 1198.6C942.27 1268.43 885.658 1325.04 815.822 1325.04C815.08 1325.04 814.34 1325.04 813.601 1325.02C792.155 1364.33 750.455 1391 702.523 1391C662.255 1391 626.384 1372.18 603.227 1342.85C580.06 1371.94 544.335 1390.6 504.252 1390.6C468.845 1390.6 436.836 1376.04 413.882 1352.59C391.743 1369.82 363.919 1380.08 333.697 1380.08C261.515 1380.08 203 1321.56 203 1249.38C203 1177.19 261.515 1118.68 333.697 1118.68C340.16 1118.68 346.513 1119.15 352.724 1120.06C352.718 1119.6 352.716 1119.14 352.716 1118.68C352.716 1057 402.717 1007 464.396 1007Z" fill="url(#paint24_linear_27_292)"/>
<path d="M1224.4 1763C1256.97 1763 1286.29 1776.95 1306.7 1799.2C1329.01 1779.44 1358.36 1767.45 1390.5 1767.45C1444.03 1767.45 1489.79 1800.72 1508.24 1847.7C1527.79 1835.32 1550.97 1828.15 1575.82 1828.15C1645.66 1828.15 1702.27 1884.76 1702.27 1954.6C1702.27 2024.43 1645.66 2081.04 1575.82 2081.04C1575.08 2081.04 1574.34 2081.04 1573.6 2081.02C1552.16 2120.33 1510.45 2147 1462.52 2147C1422.25 2147 1386.38 2128.18 1363.23 2098.85C1340.06 2127.94 1304.33 2146.6 1264.25 2146.6C1228.84 2146.6 1196.84 2132.04 1173.88 2108.59C1151.74 2125.82 1123.92 2136.08 1093.7 2136.08C1021.52 2136.08 963 2077.56 963 2005.38C963 1933.19 1021.52 1874.68 1093.7 1874.68C1100.16 1874.68 1106.51 1875.15 1112.72 1876.06C1112.72 1875.6 1112.72 1875.14 1112.72 1874.68C1112.72 1813 1162.72 1763 1224.4 1763Z" fill="url(#paint25_linear_27_292)"/>
<path d="M1224.4 1763C1256.97 1763 1286.29 1776.95 1306.7 1799.2C1329.01 1779.44 1358.36 1767.45 1390.5 1767.45C1444.03 1767.45 1489.79 1800.72 1508.24 1847.7C1527.79 1835.32 1550.97 1828.15 1575.82 1828.15C1645.66 1828.15 1702.27 1884.76 1702.27 1954.6C1702.27 2024.43 1645.66 2081.04 1575.82 2081.04C1575.08 2081.04 1574.34 2081.04 1573.6 2081.02C1552.16 2120.33 1510.45 2147 1462.52 2147C1422.25 2147 1386.38 2128.18 1363.23 2098.85C1340.06 2127.94 1304.33 2146.6 1264.25 2146.6C1228.84 2146.6 1196.84 2132.04 1173.88 2108.59C1151.74 2125.82 1123.92 2136.08 1093.7 2136.08C1021.52 2136.08 963 2077.56 963 2005.38C963 1933.19 1021.52 1874.68 1093.7 1874.68C1100.16 1874.68 1106.51 1875.15 1112.72 1876.06C1112.72 1875.6 1112.72 1875.14 1112.72 1874.68C1112.72 1813 1162.72 1763 1224.4 1763Z" fill="url(#paint26_linear_27_292)"/>
<path d="M1304.4 1927C1336.97 1927 1366.29 1940.95 1386.7 1963.2C1409.01 1943.44 1438.36 1931.45 1470.5 1931.45C1524.03 1931.45 1569.79 1964.72 1588.24 2011.7C1607.79 1999.32 1630.97 1992.15 1655.82 1992.15C1725.66 1992.15 1782.27 2048.76 1782.27 2118.6C1782.27 2188.43 1725.66 2245.04 1655.82 2245.04C1655.08 2245.04 1654.34 2245.04 1653.6 2245.02C1632.16 2284.33 1590.45 2311 1542.52 2311C1502.25 2311 1466.38 2292.18 1443.23 2262.85C1420.06 2291.94 1384.33 2310.6 1344.25 2310.6C1308.84 2310.6 1276.84 2296.04 1253.88 2272.59C1231.74 2289.82 1203.92 2300.08 1173.7 2300.08C1101.52 2300.08 1043 2241.56 1043 2169.38C1043 2097.19 1101.52 2038.68 1173.7 2038.68C1180.16 2038.68 1186.51 2039.15 1192.72 2040.06C1192.72 2039.6 1192.72 2039.14 1192.72 2038.68C1192.72 1977 1242.72 1927 1304.4 1927Z" fill="url(#paint27_linear_27_292)"/>
<path d="M1304.4 1927C1336.97 1927 1366.29 1940.95 1386.7 1963.2C1409.01 1943.44 1438.36 1931.45 1470.5 1931.45C1524.03 1931.45 1569.79 1964.72 1588.24 2011.7C1607.79 1999.32 1630.97 1992.15 1655.82 1992.15C1725.66 1992.15 1782.27 2048.76 1782.27 2118.6C1782.27 2188.43 1725.66 2245.04 1655.82 2245.04C1655.08 2245.04 1654.34 2245.04 1653.6 2245.02C1632.16 2284.33 1590.45 2311 1542.52 2311C1502.25 2311 1466.38 2292.18 1443.23 2262.85C1420.06 2291.94 1384.33 2310.6 1344.25 2310.6C1308.84 2310.6 1276.84 2296.04 1253.88 2272.59C1231.74 2289.82 1203.92 2300.08 1173.7 2300.08C1101.52 2300.08 1043 2241.56 1043 2169.38C1043 2097.19 1101.52 2038.68 1173.7 2038.68C1180.16 2038.68 1186.51 2039.15 1192.72 2040.06C1192.72 2039.6 1192.72 2039.14 1192.72 2038.68C1192.72 1977 1242.72 1927 1304.4 1927Z" fill="url(#paint28_linear_27_292)"/>
<path d="M1304.4 1927C1336.97 1927 1366.29 1940.95 1386.7 1963.2C1409.01 1943.44 1438.36 1931.45 1470.5 1931.45C1524.03 1931.45 1569.79 1964.72 1588.24 2011.7C1607.79 1999.32 1630.97 1992.15 1655.82 1992.15C1725.66 1992.15 1782.27 2048.76 1782.27 2118.6C1782.27 2188.43 1725.66 2245.04 1655.82 2245.04C1655.08 2245.04 1654.34 2245.04 1653.6 2245.02C1632.16 2284.33 1590.45 2311 1542.52 2311C1502.25 2311 1466.38 2292.18 1443.23 2262.85C1420.06 2291.94 1384.33 2310.6 1344.25 2310.6C1308.84 2310.6 1276.84 2296.04 1253.88 2272.59C1231.74 2289.82 1203.92 2300.08 1173.7 2300.08C1101.52 2300.08 1043 2241.56 1043 2169.38C1043 2097.19 1101.52 2038.68 1173.7 2038.68C1180.16 2038.68 1186.51 2039.15 1192.72 2040.06C1192.72 2039.6 1192.72 2039.14 1192.72 2038.68C1192.72 1977 1242.72 1927 1304.4 1927Z" fill="url(#paint29_linear_27_292)"/>
<path d="M1304.4 1927C1336.97 1927 1366.29 1940.95 1386.7 1963.2C1409.01 1943.44 1438.36 1931.45 1470.5 1931.45C1524.03 1931.45 1569.79 1964.72 1588.24 2011.7C1607.79 1999.32 1630.97 1992.15 1655.82 1992.15C1725.66 1992.15 1782.27 2048.76 1782.27 2118.6C1782.27 2188.43 1725.66 2245.04 1655.82 2245.04C1655.08 2245.04 1654.34 2245.04 1653.6 2245.02C1632.16 2284.33 1590.45 2311 1542.52 2311C1502.25 2311 1466.38 2292.18 1443.23 2262.85C1420.06 2291.94 1384.33 2310.6 1344.25 2310.6C1308.84 2310.6 1276.84 2296.04 1253.88 2272.59C1231.74 2289.82 1203.92 2300.08 1173.7 2300.08C1101.52 2300.08 1043 2241.56 1043 2169.38C1043 2097.19 1101.52 2038.68 1173.7 2038.68C1180.16 2038.68 1186.51 2039.15 1192.72 2040.06C1192.72 2039.6 1192.72 2039.14 1192.72 2038.68C1192.72 1977 1242.72 1927 1304.4 1927Z" fill="url(#paint30_linear_27_292)"/>
<path d="M1304.4 1927C1336.97 1927 1366.29 1940.95 1386.7 1963.2C1409.01 1943.44 1438.36 1931.45 1470.5 1931.45C1524.03 1931.45 1569.79 1964.72 1588.24 2011.7C1607.79 1999.32 1630.97 1992.15 1655.82 1992.15C1725.66 1992.15 1782.27 2048.76 1782.27 2118.6C1782.27 2188.43 1725.66 2245.04 1655.82 2245.04C1655.08 2245.04 1654.34 2245.04 1653.6 2245.02C1632.16 2284.33 1590.45 2311 1542.52 2311C1502.25 2311 1466.38 2292.18 1443.23 2262.85C1420.06 2291.94 1384.33 2310.6 1344.25 2310.6C1308.84 2310.6 1276.84 2296.04 1253.88 2272.59C1231.74 2289.82 1203.92 2300.08 1173.7 2300.08C1101.52 2300.08 1043 2241.56 1043 2169.38C1043 2097.19 1101.52 2038.68 1173.7 2038.68C1180.16 2038.68 1186.51 2039.15 1192.72 2040.06C1192.72 2039.6 1192.72 2039.14 1192.72 2038.68C1192.72 1977 1242.72 1927 1304.4 1927Z" fill="url(#paint31_linear_27_292)"/>
<path d="M1304.4 1927C1336.97 1927 1366.29 1940.95 1386.7 1963.2C1409.01 1943.44 1438.36 1931.45 1470.5 1931.45C1524.03 1931.45 1569.79 1964.72 1588.24 2011.7C1607.79 1999.32 1630.97 1992.15 1655.82 1992.15C1725.66 1992.15 1782.27 2048.76 1782.27 2118.6C1782.27 2188.43 1725.66 2245.04 1655.82 2245.04C1655.08 2245.04 1654.34 2245.04 1653.6 2245.02C1632.16 2284.33 1590.45 2311 1542.52 2311C1502.25 2311 1466.38 2292.18 1443.23 2262.85C1420.06 2291.94 1384.33 2310.6 1344.25 2310.6C1308.84 2310.6 1276.84 2296.04 1253.88 2272.59C1231.74 2289.82 1203.92 2300.08 1173.7 2300.08C1101.52 2300.08 1043 2241.56 1043 2169.38C1043 2097.19 1101.52 2038.68 1173.7 2038.68C1180.16 2038.68 1186.51 2039.15 1192.72 2040.06C1192.72 2039.6 1192.72 2039.14 1192.72 2038.68C1192.72 1977 1242.72 1927 1304.4 1927Z" fill="url(#paint32_linear_27_292)"/>
<path d="M1304.4 1927C1336.97 1927 1366.29 1940.95 1386.7 1963.2C1409.01 1943.44 1438.36 1931.45 1470.5 1931.45C1524.03 1931.45 1569.79 1964.72 1588.24 2011.7C1607.79 1999.32 1630.97 1992.15 1655.82 1992.15C1725.66 1992.15 1782.27 2048.76 1782.27 2118.6C1782.27 2188.43 1725.66 2245.04 1655.82 2245.04C1655.08 2245.04 1654.34 2245.04 1653.6 2245.02C1632.16 2284.33 1590.45 2311 1542.52 2311C1502.25 2311 1466.38 2292.18 1443.23 2262.85C1420.06 2291.94 1384.33 2310.6 1344.25 2310.6C1308.84 2310.6 1276.84 2296.04 1253.88 2272.59C1231.74 2289.82 1203.92 2300.08 1173.7 2300.08C1101.52 2300.08 1043 2241.56 1043 2169.38C1043 2097.19 1101.52 2038.68 1173.7 2038.68C1180.16 2038.68 1186.51 2039.15 1192.72 2040.06C1192.72 2039.6 1192.72 2039.14 1192.72 2038.68C1192.72 1977 1242.72 1927 1304.4 1927Z" fill="url(#paint33_linear_27_292)"/>
<path d="M1129.4 1828C1161.97 1828 1191.29 1841.95 1211.7 1864.2C1234.01 1844.44 1263.36 1832.45 1295.5 1832.45C1349.03 1832.45 1394.79 1865.72 1413.24 1912.7C1432.79 1900.32 1455.97 1893.15 1480.82 1893.15C1550.66 1893.15 1607.27 1949.76 1607.27 2019.6C1607.27 2089.43 1550.66 2146.04 1480.82 2146.04C1480.08 2146.04 1479.34 2146.04 1478.6 2146.02C1457.16 2185.33 1415.45 2212 1367.52 2212C1327.25 2212 1291.38 2193.18 1268.23 2163.85C1245.06 2192.94 1209.33 2211.6 1169.25 2211.6C1133.84 2211.6 1101.84 2197.04 1078.88 2173.59C1056.74 2190.82 1028.92 2201.08 998.697 2201.08C926.515 2201.08 868 2142.56 868 2070.38C868 1998.19 926.515 1939.68 998.697 1939.68C1005.16 1939.68 1011.51 1940.15 1017.72 1941.06C1017.72 1940.6 1017.72 1940.14 1017.72 1939.68C1017.72 1878 1067.72 1828 1129.4 1828Z" fill="url(#paint34_linear_27_292)"/>
<path d="M1129.4 1828C1161.97 1828 1191.29 1841.95 1211.7 1864.2C1234.01 1844.44 1263.36 1832.45 1295.5 1832.45C1349.03 1832.45 1394.79 1865.72 1413.24 1912.7C1432.79 1900.32 1455.97 1893.15 1480.82 1893.15C1550.66 1893.15 1607.27 1949.76 1607.27 2019.6C1607.27 2089.43 1550.66 2146.04 1480.82 2146.04C1480.08 2146.04 1479.34 2146.04 1478.6 2146.02C1457.16 2185.33 1415.45 2212 1367.52 2212C1327.25 2212 1291.38 2193.18 1268.23 2163.85C1245.06 2192.94 1209.33 2211.6 1169.25 2211.6C1133.84 2211.6 1101.84 2197.04 1078.88 2173.59C1056.74 2190.82 1028.92 2201.08 998.697 2201.08C926.515 2201.08 868 2142.56 868 2070.38C868 1998.19 926.515 1939.68 998.697 1939.68C1005.16 1939.68 1011.51 1940.15 1017.72 1941.06C1017.72 1940.6 1017.72 1940.14 1017.72 1939.68C1017.72 1878 1067.72 1828 1129.4 1828Z" fill="url(#paint35_linear_27_292)"/>
<path d="M1166.4 1896C1198.97 1896 1228.29 1909.95 1248.7 1932.2C1271.01 1912.44 1300.36 1900.45 1332.5 1900.45C1386.03 1900.45 1431.79 1933.72 1450.24 1980.7C1469.79 1968.32 1492.97 1961.15 1517.82 1961.15C1587.66 1961.15 1644.27 2017.76 1644.27 2087.6C1644.27 2157.43 1587.66 2214.04 1517.82 2214.04C1517.08 2214.04 1516.34 2214.04 1515.6 2214.02C1494.16 2253.33 1452.45 2280 1404.52 2280C1364.25 2280 1328.38 2261.18 1305.23 2231.85C1282.06 2260.94 1246.33 2279.6 1206.25 2279.6C1170.84 2279.6 1138.84 2265.04 1115.88 2241.59C1093.74 2258.82 1065.92 2269.08 1035.7 2269.08C963.515 2269.08 905 2210.56 905 2138.38C905 2066.19 963.515 2007.68 1035.7 2007.68C1042.16 2007.68 1048.51 2008.15 1054.72 2009.06C1054.72 2008.6 1054.72 2008.14 1054.72 2007.68C1054.72 1946 1104.72 1896 1166.4 1896Z" fill="url(#paint36_linear_27_292)"/>
<path d="M1166.4 1896C1198.97 1896 1228.29 1909.95 1248.7 1932.2C1271.01 1912.44 1300.36 1900.45 1332.5 1900.45C1386.03 1900.45 1431.79 1933.72 1450.24 1980.7C1469.79 1968.32 1492.97 1961.15 1517.82 1961.15C1587.66 1961.15 1644.27 2017.76 1644.27 2087.6C1644.27 2157.43 1587.66 2214.04 1517.82 2214.04C1517.08 2214.04 1516.34 2214.04 1515.6 2214.02C1494.16 2253.33 1452.45 2280 1404.52 2280C1364.25 2280 1328.38 2261.18 1305.23 2231.85C1282.06 2260.94 1246.33 2279.6 1206.25 2279.6C1170.84 2279.6 1138.84 2265.04 1115.88 2241.59C1093.74 2258.82 1065.92 2269.08 1035.7 2269.08C963.515 2269.08 905 2210.56 905 2138.38C905 2066.19 963.515 2007.68 1035.7 2007.68C1042.16 2007.68 1048.51 2008.15 1054.72 2009.06C1054.72 2008.6 1054.72 2008.14 1054.72 2007.68C1054.72 1946 1104.72 1896 1166.4 1896Z" fill="url(#paint37_linear_27_292)"/>
<path d="M1166.4 1896C1198.97 1896 1228.29 1909.95 1248.7 1932.2C1271.01 1912.44 1300.36 1900.45 1332.5 1900.45C1386.03 1900.45 1431.79 1933.72 1450.24 1980.7C1469.79 1968.32 1492.97 1961.15 1517.82 1961.15C1587.66 1961.15 1644.27 2017.76 1644.27 2087.6C1644.27 2157.43 1587.66 2214.04 1517.82 2214.04C1517.08 2214.04 1516.34 2214.04 1515.6 2214.02C1494.16 2253.33 1452.45 2280 1404.52 2280C1364.25 2280 1328.38 2261.18 1305.23 2231.85C1282.06 2260.94 1246.33 2279.6 1206.25 2279.6C1170.84 2279.6 1138.84 2265.04 1115.88 2241.59C1093.74 2258.82 1065.92 2269.08 1035.7 2269.08C963.515 2269.08 905 2210.56 905 2138.38C905 2066.19 963.515 2007.68 1035.7 2007.68C1042.16 2007.68 1048.51 2008.15 1054.72 2009.06C1054.72 2008.6 1054.72 2008.14 1054.72 2007.68C1054.72 1946 1104.72 1896 1166.4 1896Z" fill="url(#paint38_linear_27_292)"/>
<path d="M1166.4 1896C1198.97 1896 1228.29 1909.95 1248.7 1932.2C1271.01 1912.44 1300.36 1900.45 1332.5 1900.45C1386.03 1900.45 1431.79 1933.72 1450.24 1980.7C1469.79 1968.32 1492.97 1961.15 1517.82 1961.15C1587.66 1961.15 1644.27 2017.76 1644.27 2087.6C1644.27 2157.43 1587.66 2214.04 1517.82 2214.04C1517.08 2214.04 1516.34 2214.04 1515.6 2214.02C1494.16 2253.33 1452.45 2280 1404.52 2280C1364.25 2280 1328.38 2261.18 1305.23 2231.85C1282.06 2260.94 1246.33 2279.6 1206.25 2279.6C1170.84 2279.6 1138.84 2265.04 1115.88 2241.59C1093.74 2258.82 1065.92 2269.08 1035.7 2269.08C963.515 2269.08 905 2210.56 905 2138.38C905 2066.19 963.515 2007.68 1035.7 2007.68C1042.16 2007.68 1048.51 2008.15 1054.72 2009.06C1054.72 2008.6 1054.72 2008.14 1054.72 2007.68C1054.72 1946 1104.72 1896 1166.4 1896Z" fill="url(#paint39_linear_27_292)"/>
<path d="M1166.4 1896C1198.97 1896 1228.29 1909.95 1248.7 1932.2C1271.01 1912.44 1300.36 1900.45 1332.5 1900.45C1386.03 1900.45 1431.79 1933.72 1450.24 1980.7C1469.79 1968.32 1492.97 1961.15 1517.82 1961.15C1587.66 1961.15 1644.27 2017.76 1644.27 2087.6C1644.27 2157.43 1587.66 2214.04 1517.82 2214.04C1517.08 2214.04 1516.34 2214.04 1515.6 2214.02C1494.16 2253.33 1452.45 2280 1404.52 2280C1364.25 2280 1328.38 2261.18 1305.23 2231.85C1282.06 2260.94 1246.33 2279.6 1206.25 2279.6C1170.84 2279.6 1138.84 2265.04 1115.88 2241.59C1093.74 2258.82 1065.92 2269.08 1035.7 2269.08C963.515 2269.08 905 2210.56 905 2138.38C905 2066.19 963.515 2007.68 1035.7 2007.68C1042.16 2007.68 1048.51 2008.15 1054.72 2009.06C1054.72 2008.6 1054.72 2008.14 1054.72 2007.68C1054.72 1946 1104.72 1896 1166.4 1896Z" fill="url(#paint40_linear_27_292)"/>
<path d="M1166.4 1896C1198.97 1896 1228.29 1909.95 1248.7 1932.2C1271.01 1912.44 1300.36 1900.45 1332.5 1900.45C1386.03 1900.45 1431.79 1933.72 1450.24 1980.7C1469.79 1968.32 1492.97 1961.15 1517.82 1961.15C1587.66 1961.15 1644.27 2017.76 1644.27 2087.6C1644.27 2157.43 1587.66 2214.04 1517.82 2214.04C1517.08 2214.04 1516.34 2214.04 1515.6 2214.02C1494.16 2253.33 1452.45 2280 1404.52 2280C1364.25 2280 1328.38 2261.18 1305.23 2231.85C1282.06 2260.94 1246.33 2279.6 1206.25 2279.6C1170.84 2279.6 1138.84 2265.04 1115.88 2241.59C1093.74 2258.82 1065.92 2269.08 1035.7 2269.08C963.515 2269.08 905 2210.56 905 2138.38C905 2066.19 963.515 2007.68 1035.7 2007.68C1042.16 2007.68 1048.51 2008.15 1054.72 2009.06C1054.72 2008.6 1054.72 2008.14 1054.72 2007.68C1054.72 1946 1104.72 1896 1166.4 1896Z" fill="url(#paint41_linear_27_292)"/>
<path d="M1166.4 1896C1198.97 1896 1228.29 1909.95 1248.7 1932.2C1271.01 1912.44 1300.36 1900.45 1332.5 1900.45C1386.03 1900.45 1431.79 1933.72 1450.24 1980.7C1469.79 1968.32 1492.97 1961.15 1517.82 1961.15C1587.66 1961.15 1644.27 2017.76 1644.27 2087.6C1644.27 2157.43 1587.66 2214.04 1517.82 2214.04C1517.08 2214.04 1516.34 2214.04 1515.6 2214.02C1494.16 2253.33 1452.45 2280 1404.52 2280C1364.25 2280 1328.38 2261.18 1305.23 2231.85C1282.06 2260.94 1246.33 2279.6 1206.25 2279.6C1170.84 2279.6 1138.84 2265.04 1115.88 2241.59C1093.74 2258.82 1065.92 2269.08 1035.7 2269.08C963.515 2269.08 905 2210.56 905 2138.38C905 2066.19 963.515 2007.68 1035.7 2007.68C1042.16 2007.68 1048.51 2008.15 1054.72 2009.06C1054.72 2008.6 1054.72 2008.14 1054.72 2007.68C1054.72 1946 1104.72 1896 1166.4 1896Z" fill="url(#paint42_linear_27_292)"/>
<path d="M1166.4 1896C1198.97 1896 1228.29 1909.95 1248.7 1932.2C1271.01 1912.44 1300.36 1900.45 1332.5 1900.45C1386.03 1900.45 1431.79 1933.72 1450.24 1980.7C1469.79 1968.32 1492.97 1961.15 1517.82 1961.15C1587.66 1961.15 1644.27 2017.76 1644.27 2087.6C1644.27 2157.43 1587.66 2214.04 1517.82 2214.04C1517.08 2214.04 1516.34 2214.04 1515.6 2214.02C1494.16 2253.33 1452.45 2280 1404.52 2280C1364.25 2280 1328.38 2261.18 1305.23 2231.85C1282.06 2260.94 1246.33 2279.6 1206.25 2279.6C1170.84 2279.6 1138.84 2265.04 1115.88 2241.59C1093.74 2258.82 1065.92 2269.08 1035.7 2269.08C963.515 2269.08 905 2210.56 905 2138.38C905 2066.19 963.515 2007.68 1035.7 2007.68C1042.16 2007.68 1048.51 2008.15 1054.72 2009.06C1054.72 2008.6 1054.72 2008.14 1054.72 2007.68C1054.72 1946 1104.72 1896 1166.4 1896Z" fill="url(#paint43_linear_27_292)"/>
<path d="M878.396 1896C910.972 1896 940.289 1909.95 960.704 1932.2C983.014 1912.44 1012.36 1900.45 1044.5 1900.45C1098.03 1900.45 1143.79 1933.72 1162.24 1980.7C1181.79 1968.32 1204.97 1961.15 1229.82 1961.15C1299.66 1961.15 1356.27 2017.76 1356.27 2087.6C1356.27 2157.43 1299.66 2214.04 1229.82 2214.04C1229.08 2214.04 1228.34 2214.04 1227.6 2214.02C1206.16 2253.33 1164.45 2280 1116.52 2280C1076.25 2280 1040.38 2261.18 1017.23 2231.85C994.06 2260.94 958.335 2279.6 918.252 2279.6C882.845 2279.6 850.836 2265.04 827.882 2241.59C805.743 2258.82 777.919 2269.08 747.697 2269.08C675.515 2269.08 617 2210.56 617 2138.38C617 2066.19 675.515 2007.68 747.697 2007.68C754.16 2007.68 760.513 2008.15 766.724 2009.06C766.718 2008.6 766.716 2008.14 766.716 2007.68C766.716 1946 816.717 1896 878.396 1896Z" fill="url(#paint44_linear_27_292)"/>
<path d="M878.396 1896C910.972 1896 940.289 1909.95 960.704 1932.2C983.014 1912.44 1012.36 1900.45 1044.5 1900.45C1098.03 1900.45 1143.79 1933.72 1162.24 1980.7C1181.79 1968.32 1204.97 1961.15 1229.82 1961.15C1299.66 1961.15 1356.27 2017.76 1356.27 2087.6C1356.27 2157.43 1299.66 2214.04 1229.82 2214.04C1229.08 2214.04 1228.34 2214.04 1227.6 2214.02C1206.16 2253.33 1164.45 2280 1116.52 2280C1076.25 2280 1040.38 2261.18 1017.23 2231.85C994.06 2260.94 958.335 2279.6 918.252 2279.6C882.845 2279.6 850.836 2265.04 827.882 2241.59C805.743 2258.82 777.919 2269.08 747.697 2269.08C675.515 2269.08 617 2210.56 617 2138.38C617 2066.19 675.515 2007.68 747.697 2007.68C754.16 2007.68 760.513 2008.15 766.724 2009.06C766.718 2008.6 766.716 2008.14 766.716 2007.68C766.716 1946 816.717 1896 878.396 1896Z" fill="url(#paint45_linear_27_292)"/>
<path d="M878.396 1896C910.972 1896 940.289 1909.95 960.704 1932.2C983.014 1912.44 1012.36 1900.45 1044.5 1900.45C1098.03 1900.45 1143.79 1933.72 1162.24 1980.7C1181.79 1968.32 1204.97 1961.15 1229.82 1961.15C1299.66 1961.15 1356.27 2017.76 1356.27 2087.6C1356.27 2157.43 1299.66 2214.04 1229.82 2214.04C1229.08 2214.04 1228.34 2214.04 1227.6 2214.02C1206.16 2253.33 1164.45 2280 1116.52 2280C1076.25 2280 1040.38 2261.18 1017.23 2231.85C994.06 2260.94 958.335 2279.6 918.252 2279.6C882.845 2279.6 850.836 2265.04 827.882 2241.59C805.743 2258.82 777.919 2269.08 747.697 2269.08C675.515 2269.08 617 2210.56 617 2138.38C617 2066.19 675.515 2007.68 747.697 2007.68C754.16 2007.68 760.513 2008.15 766.724 2009.06C766.718 2008.6 766.716 2008.14 766.716 2007.68C766.716 1946 816.717 1896 878.396 1896Z" fill="url(#paint46_linear_27_292)"/>
<path d="M878.396 1896C910.972 1896 940.289 1909.95 960.704 1932.2C983.014 1912.44 1012.36 1900.45 1044.5 1900.45C1098.03 1900.45 1143.79 1933.72 1162.24 1980.7C1181.79 1968.32 1204.97 1961.15 1229.82 1961.15C1299.66 1961.15 1356.27 2017.76 1356.27 2087.6C1356.27 2157.43 1299.66 2214.04 1229.82 2214.04C1229.08 2214.04 1228.34 2214.04 1227.6 2214.02C1206.16 2253.33 1164.45 2280 1116.52 2280C1076.25 2280 1040.38 2261.18 1017.23 2231.85C994.06 2260.94 958.335 2279.6 918.252 2279.6C882.845 2279.6 850.836 2265.04 827.882 2241.59C805.743 2258.82 777.919 2269.08 747.697 2269.08C675.515 2269.08 617 2210.56 617 2138.38C617 2066.19 675.515 2007.68 747.697 2007.68C754.16 2007.68 760.513 2008.15 766.724 2009.06C766.718 2008.6 766.716 2008.14 766.716 2007.68C766.716 1946 816.717 1896 878.396 1896Z" fill="url(#paint47_linear_27_292)"/>
<path d="M878.396 1896C910.972 1896 940.289 1909.95 960.704 1932.2C983.014 1912.44 1012.36 1900.45 1044.5 1900.45C1098.03 1900.45 1143.79 1933.72 1162.24 1980.7C1181.79 1968.32 1204.97 1961.15 1229.82 1961.15C1299.66 1961.15 1356.27 2017.76 1356.27 2087.6C1356.27 2157.43 1299.66 2214.04 1229.82 2214.04C1229.08 2214.04 1228.34 2214.04 1227.6 2214.02C1206.16 2253.33 1164.45 2280 1116.52 2280C1076.25 2280 1040.38 2261.18 1017.23 2231.85C994.06 2260.94 958.335 2279.6 918.252 2279.6C882.845 2279.6 850.836 2265.04 827.882 2241.59C805.743 2258.82 777.919 2269.08 747.697 2269.08C675.515 2269.08 617 2210.56 617 2138.38C617 2066.19 675.515 2007.68 747.697 2007.68C754.16 2007.68 760.513 2008.15 766.724 2009.06C766.718 2008.6 766.716 2008.14 766.716 2007.68C766.716 1946 816.717 1896 878.396 1896Z" fill="url(#paint48_linear_27_292)"/>
<path d="M878.396 1896C910.972 1896 940.289 1909.95 960.704 1932.2C983.014 1912.44 1012.36 1900.45 1044.5 1900.45C1098.03 1900.45 1143.79 1933.72 1162.24 1980.7C1181.79 1968.32 1204.97 1961.15 1229.82 1961.15C1299.66 1961.15 1356.27 2017.76 1356.27 2087.6C1356.27 2157.43 1299.66 2214.04 1229.82 2214.04C1229.08 2214.04 1228.34 2214.04 1227.6 2214.02C1206.16 2253.33 1164.45 2280 1116.52 2280C1076.25 2280 1040.38 2261.18 1017.23 2231.85C994.06 2260.94 958.335 2279.6 918.252 2279.6C882.845 2279.6 850.836 2265.04 827.882 2241.59C805.743 2258.82 777.919 2269.08 747.697 2269.08C675.515 2269.08 617 2210.56 617 2138.38C617 2066.19 675.515 2007.68 747.697 2007.68C754.16 2007.68 760.513 2008.15 766.724 2009.06C766.718 2008.6 766.716 2008.14 766.716 2007.68C766.716 1946 816.717 1896 878.396 1896Z" fill="url(#paint49_linear_27_292)"/>
<path d="M878.396 1896C910.972 1896 940.289 1909.95 960.704 1932.2C983.014 1912.44 1012.36 1900.45 1044.5 1900.45C1098.03 1900.45 1143.79 1933.72 1162.24 1980.7C1181.79 1968.32 1204.97 1961.15 1229.82 1961.15C1299.66 1961.15 1356.27 2017.76 1356.27 2087.6C1356.27 2157.43 1299.66 2214.04 1229.82 2214.04C1229.08 2214.04 1228.34 2214.04 1227.6 2214.02C1206.16 2253.33 1164.45 2280 1116.52 2280C1076.25 2280 1040.38 2261.18 1017.23 2231.85C994.06 2260.94 958.335 2279.6 918.252 2279.6C882.845 2279.6 850.836 2265.04 827.882 2241.59C805.743 2258.82 777.919 2269.08 747.697 2269.08C675.515 2269.08 617 2210.56 617 2138.38C617 2066.19 675.515 2007.68 747.697 2007.68C754.16 2007.68 760.513 2008.15 766.724 2009.06C766.718 2008.6 766.716 2008.14 766.716 2007.68C766.716 1946 816.717 1896 878.396 1896Z" fill="url(#paint50_linear_27_292)"/>
<path d="M878.396 1896C910.972 1896 940.289 1909.95 960.704 1932.2C983.014 1912.44 1012.36 1900.45 1044.5 1900.45C1098.03 1900.45 1143.79 1933.72 1162.24 1980.7C1181.79 1968.32 1204.97 1961.15 1229.82 1961.15C1299.66 1961.15 1356.27 2017.76 1356.27 2087.6C1356.27 2157.43 1299.66 2214.04 1229.82 2214.04C1229.08 2214.04 1228.34 2214.04 1227.6 2214.02C1206.16 2253.33 1164.45 2280 1116.52 2280C1076.25 2280 1040.38 2261.18 1017.23 2231.85C994.06 2260.94 958.335 2279.6 918.252 2279.6C882.845 2279.6 850.836 2265.04 827.882 2241.59C805.743 2258.82 777.919 2269.08 747.697 2269.08C675.515 2269.08 617 2210.56 617 2138.38C617 2066.19 675.515 2007.68 747.697 2007.68C754.16 2007.68 760.513 2008.15 766.724 2009.06C766.718 2008.6 766.716 2008.14 766.716 2007.68C766.716 1946 816.717 1896 878.396 1896Z" fill="url(#paint51_linear_27_292)"/>
<path d="M1535.4 491C1567.97 491 1597.29 504.949 1617.7 527.199C1640.01 507.444 1669.36 495.451 1701.5 495.451C1747.58 495.451 1787.9 520.099 1810 556.929V869.658C1798.45 873.132 1786.21 875 1773.52 875C1733.25 875 1697.38 856.176 1674.23 826.848C1651.06 855.944 1615.33 874.596 1575.25 874.596C1539.84 874.596 1507.84 860.042 1484.88 836.592C1462.74 853.815 1434.92 864.075 1404.7 864.075C1332.52 864.075 1274 805.559 1274 733.377C1274 661.195 1332.52 602.68 1404.7 602.68C1411.16 602.68 1417.51 603.151 1423.72 604.057C1423.72 603.598 1423.72 603.139 1423.72 602.68C1423.72 541.001 1473.72 491 1535.4 491Z" fill="url(#paint52_linear_27_292)"/>
<path d="M1535.4 529C1567.97 529 1597.29 542.949 1617.7 565.199C1640.01 545.444 1669.36 533.451 1701.5 533.451C1747.58 533.451 1787.9 558.099 1810 594.929V907.658C1798.45 911.132 1786.21 913 1773.52 913C1733.25 913 1697.38 894.176 1674.23 864.848C1651.06 893.944 1615.33 912.596 1575.25 912.596C1539.84 912.596 1507.84 898.042 1484.88 874.592C1462.74 891.815 1434.92 902.075 1404.7 902.075C1332.52 902.075 1274 843.559 1274 771.377C1274 699.195 1332.52 640.68 1404.7 640.68C1411.16 640.68 1417.51 641.151 1423.72 642.057C1423.72 641.598 1423.72 641.139 1423.72 640.68C1423.72 579.001 1473.72 529 1535.4 529Z" fill="url(#paint53_linear_27_292)"/>
<defs>
<linearGradient id="paint0_linear_27_292" x1="905" y1="0" x2="905" y2="3472" gradientUnits="userSpaceOnUse">
<stop stop-color="#2A1560"/>
<stop offset="0.1875" stop-color="#1F0F46"/>
<stop offset="0.721154" stop-color="#120929"/>
</linearGradient>
<linearGradient id="paint1_linear_27_292" x1="1397.05" y1="1462" x2="1397.05" y2="2010" gradientUnits="userSpaceOnUse">
<stop stop-color="white"/>
<stop offset="1" stop-color="#999999" stop-opacity="0"/>
</linearGradient>
<linearGradient id="paint2_linear_27_292" x1="1332.64" y1="1763" x2="1332.64" y2="2147" gradientUnits="userSpaceOnUse">
<stop stop-color="white"/>
<stop offset="0.894231" stop-color="white" stop-opacity="0.1"/>
</linearGradient>
<linearGradient id="paint3_linear_27_292" x1="1428.64" y1="644" x2="1428.64" y2="1028" gradientUnits="userSpaceOnUse">
<stop stop-color="white"/>
<stop offset="0.894231" stop-color="white" stop-opacity="0.1"/>
</linearGradient>
<linearGradient id="paint4_linear_27_292" x1="1428.64" y1="644" x2="1428.64" y2="1028" gradientUnits="userSpaceOnUse">
<stop stop-color="white"/>
<stop offset="0.894231" stop-color="white" stop-opacity="0.1"/>
</linearGradient>
<linearGradient id="paint5_linear_27_292" x1="1428.64" y1="644" x2="1428.64" y2="1028" gradientUnits="userSpaceOnUse">
<stop stop-color="white"/>
<stop offset="0.894231" stop-color="white" stop-opacity="0.1"/>
</linearGradient>
<linearGradient id="paint6_linear_27_292" x1="1461.64" y1="683" x2="1461.64" y2="1067" gradientUnits="userSpaceOnUse">
<stop stop-color="white"/>
<stop offset="0.894231" stop-color="white" stop-opacity="0.1"/>
</linearGradient>
<linearGradient id="paint7_linear_27_292" x1="1461.64" y1="683" x2="1461.64" y2="1067" gradientUnits="userSpaceOnUse">
<stop stop-color="white"/>
<stop offset="0.894231" stop-color="white" stop-opacity="0.1"/>
</linearGradient>
<linearGradient id="paint8_linear_27_292" x1="1461.64" y1="683" x2="1461.64" y2="1067" gradientUnits="userSpaceOnUse">
<stop stop-color="white"/>
<stop offset="0.894231" stop-color="white" stop-opacity="0.1"/>
</linearGradient>
<linearGradient id="paint9_linear_27_292" x1="1461.64" y1="683" x2="1461.64" y2="1067" gradientUnits="userSpaceOnUse">
<stop stop-color="white"/>
<stop offset="0.894231" stop-color="white" stop-opacity="0.1"/>
</linearGradient>
<linearGradient id="paint10_linear_27_292" x1="1461.64" y1="656" x2="1461.64" y2="1040" gradientUnits="userSpaceOnUse">
<stop stop-color="white"/>
<stop offset="0.894231" stop-color="white" stop-opacity="0.1"/>
</linearGradient>
<linearGradient id="paint11_linear_27_292" x1="404.635" y1="1256" x2="404.635" y2="1640" gradientUnits="userSpaceOnUse">
<stop stop-color="white"/>
<stop offset="0.894231" stop-color="white" stop-opacity="0.1"/>
</linearGradient>
<linearGradient id="paint12_linear_27_292" x1="617.635" y1="1122" x2="617.635" y2="1506" gradientUnits="userSpaceOnUse">
<stop stop-color="white"/>
<stop offset="0.894231" stop-color="white" stop-opacity="0.1"/>
</linearGradient>
<linearGradient id="paint13_linear_27_292" x1="617.635" y1="1122" x2="617.635" y2="1506" gradientUnits="userSpaceOnUse">
<stop stop-color="white"/>
<stop offset="0.894231" stop-color="white" stop-opacity="0.1"/>
</linearGradient>
<linearGradient id="paint14_linear_27_292" x1="617.635" y1="1122" x2="617.635" y2="1506" gradientUnits="userSpaceOnUse">
<stop stop-color="white"/>
<stop offset="0.894231" stop-color="white" stop-opacity="0.1"/>
</linearGradient>
<linearGradient id="paint15_linear_27_292" x1="617.635" y1="1122" x2="617.635" y2="1506" gradientUnits="userSpaceOnUse">
<stop stop-color="white"/>
<stop offset="0.894231" stop-color="white" stop-opacity="0.1"/>
</linearGradient>
<linearGradient id="paint16_linear_27_292" x1="443.635" y1="1064" x2="443.635" y2="1448" gradientUnits="userSpaceOnUse">
<stop stop-color="white"/>
<stop offset="0.894231" stop-color="white" stop-opacity="0.1"/>
</linearGradient>
<linearGradient id="paint17_linear_27_292" x1="443.635" y1="1064" x2="443.635" y2="1448" gradientUnits="userSpaceOnUse">
<stop stop-color="white"/>
<stop offset="0.894231" stop-color="white" stop-opacity="0.1"/>
</linearGradient>
<linearGradient id="paint18_linear_27_292" x1="443.635" y1="1064" x2="443.635" y2="1448" gradientUnits="userSpaceOnUse">
<stop stop-color="white"/>
<stop offset="0.894231" stop-color="white" stop-opacity="0.1"/>
</linearGradient>
<linearGradient id="paint19_linear_27_292" x1="617.635" y1="1122" x2="617.635" y2="1506" gradientUnits="userSpaceOnUse">
<stop stop-color="white"/>
<stop offset="0.894231" stop-color="white" stop-opacity="0.1"/>
</linearGradient>
<linearGradient id="paint20_linear_27_292" x1="773.635" y1="1091" x2="773.635" y2="1475" gradientUnits="userSpaceOnUse">
<stop stop-color="white"/>
<stop offset="0.894231" stop-color="white" stop-opacity="0.1"/>
</linearGradient>
<linearGradient id="paint21_linear_27_292" x1="773.635" y1="1091" x2="773.635" y2="1475" gradientUnits="userSpaceOnUse">
<stop stop-color="white"/>
<stop offset="0.894231" stop-color="white" stop-opacity="0.1"/>
</linearGradient>
<linearGradient id="paint22_linear_27_292" x1="369.635" y1="1142" x2="369.635" y2="1526" gradientUnits="userSpaceOnUse">
<stop stop-color="white"/>
<stop offset="0.894231" stop-color="white" stop-opacity="0.1"/>
</linearGradient>
<linearGradient id="paint23_linear_27_292" x1="369.635" y1="1142" x2="369.635" y2="1526" gradientUnits="userSpaceOnUse">
<stop stop-color="white"/>
<stop offset="0.894231" stop-color="white" stop-opacity="0.1"/>
</linearGradient>
<linearGradient id="paint24_linear_27_292" x1="572.635" y1="1007" x2="572.635" y2="1391" gradientUnits="userSpaceOnUse">
<stop stop-color="white"/>
<stop offset="0.894231" stop-color="white" stop-opacity="0.1"/>
</linearGradient>
<linearGradient id="paint25_linear_27_292" x1="1332.64" y1="1763" x2="1332.64" y2="2147" gradientUnits="userSpaceOnUse">
<stop stop-color="white"/>
<stop offset="0.894231" stop-color="white" stop-opacity="0.1"/>
</linearGradient>
<linearGradient id="paint26_linear_27_292" x1="1332.64" y1="1763" x2="1332.64" y2="2147" gradientUnits="userSpaceOnUse">
<stop stop-color="white"/>
<stop offset="0.894231" stop-color="white" stop-opacity="0.1"/>
</linearGradient>
<linearGradient id="paint27_linear_27_292" x1="1412.64" y1="1927" x2="1412.64" y2="2311" gradientUnits="userSpaceOnUse">
<stop stop-color="white"/>
<stop offset="0.894231" stop-color="white" stop-opacity="0.1"/>
</linearGradient>
<linearGradient id="paint28_linear_27_292" x1="1412.64" y1="1927" x2="1412.64" y2="2311" gradientUnits="userSpaceOnUse">
<stop stop-color="white"/>
<stop offset="0.894231" stop-color="white" stop-opacity="0.1"/>
</linearGradient>
<linearGradient id="paint29_linear_27_292" x1="1412.64" y1="1927" x2="1412.64" y2="2311" gradientUnits="userSpaceOnUse">
<stop stop-color="white"/>
<stop offset="0.894231" stop-color="white" stop-opacity="0.1"/>
</linearGradient>
<linearGradient id="paint30_linear_27_292" x1="1412.64" y1="1927" x2="1412.64" y2="2311" gradientUnits="userSpaceOnUse">
<stop stop-color="white"/>
<stop offset="0.894231" stop-color="white" stop-opacity="0.1"/>
</linearGradient>
<linearGradient id="paint31_linear_27_292" x1="1412.64" y1="1927" x2="1412.64" y2="2311" gradientUnits="userSpaceOnUse">
<stop stop-color="white"/>
<stop offset="0.894231" stop-color="white" stop-opacity="0.1"/>
</linearGradient>
<linearGradient id="paint32_linear_27_292" x1="1412.64" y1="1927" x2="1412.64" y2="2311" gradientUnits="userSpaceOnUse">
<stop stop-color="white"/>
<stop offset="0.894231" stop-color="white" stop-opacity="0.1"/>
</linearGradient>
<linearGradient id="paint33_linear_27_292" x1="1412.64" y1="1927" x2="1412.64" y2="2311" gradientUnits="userSpaceOnUse">
<stop stop-color="white"/>
<stop offset="0.894231" stop-color="white" stop-opacity="0.1"/>
</linearGradient>
<linearGradient id="paint34_linear_27_292" x1="1237.64" y1="1828" x2="1237.64" y2="2212" gradientUnits="userSpaceOnUse">
<stop stop-color="white"/>
<stop offset="0.894231" stop-color="white" stop-opacity="0.1"/>
</linearGradient>
<linearGradient id="paint35_linear_27_292" x1="1237.64" y1="1828" x2="1237.64" y2="2212" gradientUnits="userSpaceOnUse">
<stop stop-color="white"/>
<stop offset="0.894231" stop-color="white" stop-opacity="0.1"/>
</linearGradient>
<linearGradient id="paint36_linear_27_292" x1="1274.64" y1="1896" x2="1274.64" y2="2280" gradientUnits="userSpaceOnUse">
<stop stop-color="white"/>
<stop offset="0.894231" stop-color="white" stop-opacity="0.1"/>
</linearGradient>
<linearGradient id="paint37_linear_27_292" x1="1274.64" y1="1896" x2="1274.64" y2="2280" gradientUnits="userSpaceOnUse">
<stop stop-color="white"/>
<stop offset="0.894231" stop-color="white" stop-opacity="0.1"/>
</linearGradient>
<linearGradient id="paint38_linear_27_292" x1="1274.64" y1="1896" x2="1274.64" y2="2280" gradientUnits="userSpaceOnUse">
<stop stop-color="white"/>
<stop offset="0.894231" stop-color="white" stop-opacity="0.1"/>
</linearGradient>
<linearGradient id="paint39_linear_27_292" x1="1274.64" y1="1896" x2="1274.64" y2="2280" gradientUnits="userSpaceOnUse">
<stop stop-color="white"/>
<stop offset="0.894231" stop-color="white" stop-opacity="0.1"/>
</linearGradient>
<linearGradient id="paint40_linear_27_292" x1="1274.64" y1="1896" x2="1274.64" y2="2280" gradientUnits="userSpaceOnUse">
<stop stop-color="white"/>
<stop offset="0.894231" stop-color="white" stop-opacity="0.1"/>
</linearGradient>
<linearGradient id="paint41_linear_27_292" x1="1274.64" y1="1896" x2="1274.64" y2="2280" gradientUnits="userSpaceOnUse">
<stop stop-color="white"/>
<stop offset="0.894231" stop-color="white" stop-opacity="0.1"/>
</linearGradient>
<linearGradient id="paint42_linear_27_292" x1="1274.64" y1="1896" x2="1274.64" y2="2280" gradientUnits="userSpaceOnUse">
<stop stop-color="white"/>
<stop offset="0.894231" stop-color="white" stop-opacity="0.1"/>
</linearGradient>
<linearGradient id="paint43_linear_27_292" x1="1274.64" y1="1896" x2="1274.64" y2="2280" gradientUnits="userSpaceOnUse">
<stop stop-color="white"/>
<stop offset="0.894231" stop-color="white" stop-opacity="0.1"/>
</linearGradient>
<linearGradient id="paint44_linear_27_292" x1="986.635" y1="1896" x2="986.635" y2="2280" gradientUnits="userSpaceOnUse">
<stop stop-color="white"/>
<stop offset="0.894231" stop-color="white" stop-opacity="0.1"/>
</linearGradient>
<linearGradient id="paint45_linear_27_292" x1="986.635" y1="1896" x2="986.635" y2="2280" gradientUnits="userSpaceOnUse">
<stop stop-color="white"/>
<stop offset="0.894231" stop-color="white" stop-opacity="0.1"/>
</linearGradient>
<linearGradient id="paint46_linear_27_292" x1="986.635" y1="1896" x2="986.635" y2="2280" gradientUnits="userSpaceOnUse">
<stop stop-color="white"/>
<stop offset="0.894231" stop-color="white" stop-opacity="0.1"/>
</linearGradient>
<linearGradient id="paint47_linear_27_292" x1="986.635" y1="1896" x2="986.635" y2="2280" gradientUnits="userSpaceOnUse">
<stop stop-color="white"/>
<stop offset="0.894231" stop-color="white" stop-opacity="0.1"/>
</linearGradient>
<linearGradient id="paint48_linear_27_292" x1="986.635" y1="1896" x2="986.635" y2="2280" gradientUnits="userSpaceOnUse">
<stop stop-color="white"/>
<stop offset="0.894231" stop-color="white" stop-opacity="0.1"/>
</linearGradient>
<linearGradient id="paint49_linear_27_292" x1="986.635" y1="1896" x2="986.635" y2="2280" gradientUnits="userSpaceOnUse">
<stop stop-color="white"/>
<stop offset="0.894231" stop-color="white" stop-opacity="0.1"/>
</linearGradient>
<linearGradient id="paint50_linear_27_292" x1="986.635" y1="1896" x2="986.635" y2="2280" gradientUnits="userSpaceOnUse">
<stop stop-color="white"/>
<stop offset="0.894231" stop-color="white" stop-opacity="0.1"/>
</linearGradient>
<linearGradient id="paint51_linear_27_292" x1="986.635" y1="1896" x2="986.635" y2="2280" gradientUnits="userSpaceOnUse">
<stop stop-color="white"/>
<stop offset="0.894231" stop-color="white" stop-opacity="0.1"/>
</linearGradient>
<linearGradient id="paint52_linear_27_292" x1="1643.64" y1="491" x2="1643.64" y2="875" gradientUnits="userSpaceOnUse">
<stop stop-color="white"/>
<stop offset="0.894231" stop-color="white" stop-opacity="0.1"/>
</linearGradient>
<linearGradient id="paint53_linear_27_292" x1="1643.64" y1="529" x2="1643.64" y2="913" gradientUnits="userSpaceOnUse">
<stop stop-color="white"/>
<stop offset="0.894231" stop-color="white" stop-opacity="0.1"/>
</linearGradient>
</defs>
</svg>
