<svg width="1810" height="3474" viewBox="0 0 1810 3474" fill="none" xmlns="http://www.w3.org/2000/svg">
<path d="M0 1H1810V3473H0V1Z" fill="url(#paint0_linear_36_315)"/>
<path d="M1727 1536C1727 1538.76 1724.76 1541 1722 1541C1719.24 1541 1717 1538.76 1717 1536C1717 1533.24 1719.24 1531 1722 1531C1724.76 1531 1727 1533.24 1727 1536Z" fill="#D9D9D9" fill-opacity="0.48"/>
<path d="M1768 1842C1768 1844.76 1765.76 1847 1763 1847C1760.24 1847 1758 1844.76 1758 1842C1758 1839.24 1760.24 1837 1763 1837C1765.76 1837 1768 1839.24 1768 1842Z" fill="#D9D9D9" fill-opacity="0.48"/>
<path d="M53 57C53 59.7614 50.7614 62 48 62C45.2386 62 43 59.7614 43 57C43 54.2386 45.2386 52 48 52C50.7614 52 53 54.2386 53 57Z" fill="#D9D9D9" fill-opacity="0.48"/>
<path d="M313 40C313 42.7614 310.761 45 308 45C305.239 45 303 42.7614 303 40C303 37.2386 305.239 35 308 35C310.761 35 313 37.2386 313 40Z" fill="#D9D9D9" fill-opacity="0.48"/>
<path d="M817 229C817 231.761 814.761 234 812 234C809.239 234 807 231.761 807 229C807 226.239 809.239 224 812 224C814.761 224 817 226.239 817 229Z" fill="#D9D9D9" fill-opacity="0.48"/>
<path d="M954 13C954 15.7614 951.761 18 949 18C946.239 18 944 15.7614 944 13C944 10.2386 946.239 8 949 8C951.761 8 954 10.2386 954 13Z" fill="#D9D9D9" fill-opacity="0.48"/>
<path d="M621 160C621 162.761 618.761 165 616 165C613.239 165 611 162.761 611 160C611 157.239 613.239 155 616 155C618.761 155 621 157.239 621 160Z" fill="#D9D9D9" fill-opacity="0.48"/>
<path d="M468 313C468 315.761 465.761 318 463 318C460.239 318 458 315.761 458 313C458 310.239 460.239 308 463 308C465.761 308 468 310.239 468 313Z" fill="#D9D9D9" fill-opacity="0.48"/>
<path d="M594 21C594 23.7614 591.761 26 589 26C586.239 26 584 23.7614 584 21C584 18.2386 586.239 16 589 16C591.761 16 594 18.2386 594 21Z" fill="#D9D9D9" fill-opacity="0.48"/>
<path d="M1134 1238C1134 1240.76 1131.76 1243 1129 1243C1126.24 1243 1124 1240.76 1124 1238C1124 1235.24 1126.24 1233 1129 1233C1131.76 1233 1134 1235.24 1134 1238Z" fill="#D9D9D9" fill-opacity="0.48"/>
<path d="M1171 1441C1171 1443.76 1168.76 1446 1166 1446C1163.24 1446 1161 1443.76 1161 1441C1161 1438.24 1163.24 1436 1166 1436C1168.76 1436 1171 1438.24 1171 1441Z" fill="#D9D9D9" fill-opacity="0.48"/>
<path d="M1279 995C1279 997.761 1276.76 1000 1274 1000C1271.24 1000 1269 997.761 1269 995C1269 992.239 1271.24 990 1274 990C1276.76 990 1279 992.239 1279 995Z" fill="#D9D9D9" fill-opacity="0.48"/>
<path d="M864 1159C864 1161.76 861.761 1164 859 1164C856.239 1164 854 1161.76 854 1159C854 1156.24 856.239 1154 859 1154C861.761 1154 864 1156.24 864 1159Z" fill="#D9D9D9" fill-opacity="0.48"/>
<path d="M686 1429C686 1431.76 683.761 1434 681 1434C678.239 1434 676 1431.76 676 1429C676 1426.24 678.239 1424 681 1424C683.761 1424 686 1426.24 686 1429Z" fill="#D9D9D9" fill-opacity="0.48"/>
<path d="M823 1818C823 1820.76 820.761 1823 818 1823C815.239 1823 813 1820.76 813 1818C813 1815.24 815.239 1813 818 1813C820.761 1813 823 1815.24 823 1818Z" fill="#D9D9D9" fill-opacity="0.48"/>
<path d="M371 1641C371 1643.76 368.761 1646 366 1646C363.239 1646 361 1643.76 361 1641C361 1638.24 363.239 1636 366 1636C368.761 1636 371 1638.24 371 1641Z" fill="#D9D9D9" fill-opacity="0.48"/>
<path d="M66 1823C66 1825.76 63.7614 1828 61 1828C58.2386 1828 56 1825.76 56 1823C56 1820.24 58.2386 1818 61 1818C63.7614 1818 66 1820.24 66 1823Z" fill="#D9D9D9" fill-opacity="0.48"/>
<path d="M17 1292C17 1294.76 14.7614 1297 12 1297C9.23858 1297 7 1294.76 7 1292C7 1289.24 9.23858 1287 12 1287C14.7614 1287 17 1289.24 17 1292Z" fill="#D9D9D9" fill-opacity="0.48"/>
<path d="M421 480C421 482.761 418.761 485 416 485C413.239 485 411 482.761 411 480C411 477.239 413.239 475 416 475C418.761 475 421 477.239 421 480Z" fill="#D9D9D9" fill-opacity="0.48"/>
<path d="M681 406C681 408.761 678.761 411 676 411C673.239 411 671 408.761 671 406C671 403.239 673.239 401 676 401C678.761 401 681 403.239 681 406Z" fill="#D9D9D9" fill-opacity="0.48"/>
<path d="M290 807C290 809.761 287.761 812 285 812C282.239 812 280 809.761 280 807C280 804.239 282.239 802 285 802C287.761 802 290 804.239 290 807Z" fill="#D9D9D9" fill-opacity="0.48"/>
<path d="M643 634C643 636.761 640.761 639 638 639C635.239 639 633 636.761 633 634C633 631.239 635.239 629 638 629C640.761 629 643 631.239 643 634Z" fill="#D9D9D9" fill-opacity="0.48"/>
<path d="M615 900C615 902.761 612.761 905 610 905C607.239 905 605 902.761 605 900C605 897.239 607.239 895 610 895C612.761 895 615 897.239 615 900Z" fill="#D9D9D9" fill-opacity="0.48"/>
<path d="M504 1071C504 1073.76 501.761 1076 499 1076C496.239 1076 494 1073.76 494 1071C494 1068.24 496.239 1066 499 1066C501.761 1066 504 1068.24 504 1071Z" fill="#D9D9D9" fill-opacity="0.48"/>
<path d="M110 589C110 591.761 107.761 594 105 594C102.239 594 100 591.761 100 589C100 586.239 102.239 584 105 584C107.761 584 110 586.239 110 589Z" fill="#D9D9D9" fill-opacity="0.48"/>
<path d="M96 1027C96 1029.76 93.7614 1032 91 1032C88.2386 1032 86 1029.76 86 1027C86 1024.24 88.2386 1022 91 1022C93.7614 1022 96 1024.24 96 1027Z" fill="#D9D9D9" fill-opacity="0.48"/>
<path d="M97 1028C97 1030.76 94.7614 1033 92 1033C89.2386 1033 87 1030.76 87 1028C87 1025.24 89.2386 1023 92 1023C94.7614 1023 97 1025.24 97 1028Z" fill="#D9D9D9" fill-opacity="0.48"/>
<path d="M231 1334C231 1336.76 228.761 1339 226 1339C223.239 1339 221 1336.76 221 1334C221 1331.24 223.239 1329 226 1329C228.761 1329 231 1331.24 231 1334Z" fill="#D9D9D9" fill-opacity="0.48"/>
<path d="M1221 300C1221 302.761 1218.76 305 1216 305C1213.24 305 1211 302.761 1211 300C1211 297.239 1213.24 295 1216 295C1218.76 295 1221 297.239 1221 300Z" fill="#D9D9D9" fill-opacity="0.48"/>
<path d="M1113 554C1113 556.761 1110.76 559 1108 559C1105.24 559 1103 556.761 1103 554C1103 551.239 1105.24 549 1108 549C1110.76 549 1113 551.239 1113 554Z" fill="#D9D9D9" fill-opacity="0.48"/>
<path d="M1012 804C1012 806.761 1009.76 809 1007 809C1004.24 809 1002 806.761 1002 804C1002 801.239 1004.24 799 1007 799C1009.76 799 1012 801.239 1012 804Z" fill="#D9D9D9" fill-opacity="0.48"/>
<path d="M921 383C921 385.761 918.761 388 916 388C913.239 388 911 385.761 911 383C911 380.239 913.239 378 916 378C918.761 378 921 380.239 921 383Z" fill="#D9D9D9" fill-opacity="0.48"/>
<path d="M1321 80C1321 82.7614 1318.76 85 1316 85C1313.24 85 1311 82.7614 1311 80C1311 77.2386 1313.24 75 1316 75C1318.76 75 1321 77.2386 1321 80Z" fill="#D9D9D9" fill-opacity="0.48"/>
<path d="M1086 135C1086 137.761 1083.76 140 1081 140C1078.24 140 1076 137.761 1076 135C1076 132.239 1078.24 130 1081 130C1083.76 130 1086 132.239 1086 135Z" fill="#D9D9D9" fill-opacity="0.48"/>
<path d="M1590 20C1590 22.7614 1587.76 25 1585 25C1582.24 25 1580 22.7614 1580 20C1580 17.2386 1582.24 15 1585 15C1587.76 15 1590 17.2386 1590 20Z" fill="#D9D9D9" fill-opacity="0.48"/>
<path d="M1531 364C1531 366.761 1528.76 369 1526 369C1523.24 369 1521 366.761 1521 364C1521 361.239 1523.24 359 1526 359C1528.76 359 1531 361.239 1531 364Z" fill="#D9D9D9" fill-opacity="0.48"/>
<path d="M1647 642C1647 644.761 1644.76 647 1642 647C1639.24 647 1637 644.761 1637 642C1637 639.239 1639.24 637 1642 637C1644.76 637 1647 639.239 1647 642Z" fill="#D9D9D9" fill-opacity="0.48"/>
<path d="M1808 476C1808 478.761 1805.76 481 1803 481C1800.24 481 1798 478.761 1798 476C1798 473.239 1800.24 471 1803 471C1805.76 471 1808 473.239 1808 476Z" fill="#D9D9D9" fill-opacity="0.48"/>
<path d="M1436 616C1436 618.761 1433.76 621 1431 621C1428.24 621 1426 618.761 1426 616C1426 613.239 1428.24 611 1431 611C1433.76 611 1436 613.239 1436 616Z" fill="#D9D9D9" fill-opacity="0.48"/>
<path d="M1793 1076C1793 1078.76 1790.76 1081 1788 1081C1785.24 1081 1783 1078.76 1783 1076C1783 1073.24 1785.24 1071 1788 1071C1790.76 1071 1793 1073.24 1793 1076Z" fill="#D9D9D9" fill-opacity="0.48"/>
<path d="M1474 885C1474 887.761 1471.76 890 1469 890C1466.24 890 1464 887.761 1464 885C1464 882.239 1466.24 880 1469 880C1471.76 880 1474 882.239 1474 885Z" fill="#D9D9D9" fill-opacity="0.48"/>
<path d="M1564 1247C1564 1249.76 1561.76 1252 1559 1252C1556.24 1252 1554 1249.76 1554 1247C1554 1244.24 1556.24 1242 1559 1242C1561.76 1242 1564 1244.24 1564 1247Z" fill="#D9D9D9" fill-opacity="0.48"/>
<path d="M1702 205C1702 207.761 1699.76 210 1697 210C1694.24 210 1692 207.761 1692 205C1692 202.239 1694.24 200 1697 200C1699.76 200 1702 202.239 1702 205Z" fill="#D9D9D9" fill-opacity="0.48"/>
<path d="M1786 113C1786 115.761 1783.76 118 1781 118C1778.24 118 1776 115.761 1776 113C1776 110.239 1778.24 108 1781 108C1783.76 108 1786 110.239 1786 113Z" fill="#D9D9D9" fill-opacity="0.48"/>
<path d="M1503 188C1503 190.761 1500.76 193 1498 193C1495.24 193 1493 190.761 1493 188C1493 185.239 1495.24 183 1498 183C1500.76 183 1503 185.239 1503 188Z" fill="#D9D9D9" fill-opacity="0.48"/>
<path d="M221 280C221 282.761 218.761 285 216 285C213.239 285 211 282.761 211 280C211 277.239 213.239 275 216 275C218.761 275 221 277.239 221 280Z" fill="#D9D9D9" fill-opacity="0.48"/>
<path d="M179 157C179 159.761 176.761 162 174 162C171.239 162 169 159.761 169 157C169 154.239 171.239 152 174 152C176.761 152 179 154.239 179 157Z" fill="#D9D9D9" fill-opacity="0.48"/>
<path d="M22 337C22 339.761 19.7614 342 17 342C14.2386 342 12 339.761 12 337C12 334.239 14.2386 332 17 332C19.7614 332 22 334.239 22 337Z" fill="#D9D9D9" fill-opacity="0.48"/>
<path d="M1810 3468C1810 3470.76 1807.76 3473 1805 3473C1802.24 3473 1800 3470.76 1800 3468C1800 3465.24 1802.24 3463 1805 3463C1807.76 3463 1810 3465.24 1810 3468Z" fill="#D9D9D9" fill-opacity="0.48"/>
<path d="M1387.1 1463C1538.43 1463 1661.1 1585.67 1661.1 1737C1661.1 1888.33 1538.43 2011 1387.1 2011C1272.09 2011 1173.64 1940.14 1133 1839.7C1174.44 1886.22 1234.8 1915.51 1301.99 1915.51C1426.95 1915.51 1528.25 1814.22 1528.25 1689.26C1528.25 1578.12 1448.12 1485.7 1342.49 1466.61C1357.01 1464.24 1371.91 1463 1387.1 1463Z" fill="url(#paint1_linear_36_315)"/>
<path d="M0 0H1810V3474H0V0Z" fill="white" fill-opacity="0.2"/>
<defs>
<linearGradient id="paint0_linear_36_315" x1="1397.05" y1="1463" x2="1397.05" y2="2011" gradientUnits="userSpaceOnUse">
<stop stop-color="#2A1560"/>
<stop offset="0.1875" stop-color="#1F0F46"/>
<stop offset="0.721154" stop-color="#120929"/>
</linearGradient>
<linearGradient id="paint1_linear_36_315" x1="1397.05" y1="1463" x2="1397.05" y2="2011" gradientUnits="userSpaceOnUse">
<stop stop-color="white"/>
<stop offset="1" stop-color="#999999" stop-opacity="0"/>
</linearGradient>
</defs>
</svg>
