<svg width="151" height="151" viewBox="0 0 151 151" fill="none" xmlns="http://www.w3.org/2000/svg">
<path d="M3.51473 20.4853C-1.17156 15.799 -1.17158 8.20101 3.51472 3.51472C8.20101 -1.17157 15.799 -1.17157 20.4853 3.51472L147.228 130.258C151.914 134.944 151.914 142.542 147.228 147.228C142.542 151.914 134.944 151.914 130.258 147.228L3.51473 20.4853Z" fill="white"/>
<path d="M130.258 3.51473C134.944 -1.17156 142.542 -1.17157 147.228 3.51472C151.914 8.20101 151.914 15.799 147.228 20.4853L20.4853 147.228C15.799 151.914 8.20101 151.914 3.51472 147.228C-1.17157 142.542 -1.17157 134.944 3.51472 130.258L130.258 3.51473Z" fill="white"/>
</svg>
