<svg width="102" height="152" viewBox="0 0 102 152" fill="none" xmlns="http://www.w3.org/2000/svg">
<path d="M51 0C79.1665 0 102 23.0573 102 51.5C102 54.7456 101.701 57.9209 101.133 61H101.229L101.095 61.208C100.691 63.3466 100.154 65.4378 99.4971 67.4736H99.4844L51 151.429L2.53516 67.4844L2.50488 67.4854C1.84588 65.4459 1.30905 63.3506 0.904297 61.208L0.770508 61H0.867188C0.298548 57.9209 0 54.7456 0 51.5C0 23.0573 22.8335 0 51 0ZM51.5 23C35.7599 23 23 35.7599 23 51.5C23 67.2401 35.7599 80 51.5 80C67.2401 80 80 67.2401 80 51.5C80 35.7599 67.2401 23 51.5 23Z" fill="currentColor"/>
</svg>
