<svg width="171" height="175" viewBox="0 0 171 175" fill="none" xmlns="http://www.w3.org/2000/svg">
<path fill-rule="evenodd" clip-rule="evenodd" d="M105 0C141.451 0 171 29.5492 171 66C171 102.451 141.451 132 105 132C68.5492 132 39 102.451 39 66C39 29.5492 68.5492 0 105 0ZM105.455 17.2969C78.8085 17.297 57.2072 38.8983 57.207 65.5449C57.2072 92.1915 78.8085 113.793 105.455 113.793C132.102 113.793 153.703 92.1915 153.703 65.5449C153.703 38.8983 132.102 17.2969 105.455 17.2969Z" fill="currentColor"/>
<path d="M50.7391 109C54.6768 114.531 59.5365 119.36 65.0926 123.266C64.7883 123.68 64.4496 124.077 64.075 124.451L17.4676 171.059C13.4718 175.054 6.99278 175.054 2.99689 171.059C-0.998955 167.063 -0.998973 160.584 2.99689 156.588L49.6043 109.98C49.9636 109.621 50.3433 109.295 50.7391 109Z" fill="currentColor"/>
</svg>
